<svg width="268" height="221" viewBox="0 0 268 221" fill="none" xmlns="http://www.w3.org/2000/svg">
<path d="M264.565 105.699L155.557 214.642C147.079 223.114 133.34 223.114 124.863 214.642L95.3715 185.168C86.0096 175.812 86.0096 160.634 95.3715 151.263L202.771 43.9276C207.351 39.3509 214.785 39.3509 219.365 43.9276L244.885 69.4327L243.117 71.4024C243.117 71.4024 244.987 77.9778 250.349 83.0614C256.899 89.2602 261.464 89.883 261.464 89.883L263.58 88.1161L264.58 89.1154C269.145 93.6921 269.145 101.122 264.565 105.699Z" fill="#6562E8"/>
<path d="M114.182 179.824L91.2127 156.854C86.3144 165.935 87.6911 177.492 95.3719 185.168L118.979 208.762L124.863 214.642C133.341 223.115 147.079 223.115 155.557 214.642L264.566 105.699C269.145 101.122 269.145 93.6922 264.566 89.1155L263.45 88.0293L261.551 90.028C261.551 90.028 256.465 89.1445 250.262 82.8732C244.32 76.8772 243.103 71.359 243.103 71.359L244.943 69.5921L240.828 65.4209L126.341 179.839C122.994 183.17 117.545 183.184 114.182 179.824Z" fill="#4646D3"/>
<path d="M131.181 182.953C126.051 188.08 126.051 196.393 131.181 201.52C136.311 206.647 144.63 206.647 149.76 201.52L261.551 90.0426C261.551 90.0426 256.073 88.7971 250.204 82.9314C244.61 77.3408 242.972 71.4751 242.972 71.4751L131.181 182.953Z" fill="#FDF2DC"/>
<path d="M155.557 214.642L264.565 105.699C266.217 104.047 267.261 102.02 267.724 99.9053L151.774 215.105C141.688 223.563 124.848 214.642 124.848 214.642C133.34 223.114 147.079 223.114 155.557 214.642Z" fill="#2C2CC6"/>
<path d="M132.891 202.939C132.79 202.867 132.703 202.795 132.602 202.722C132.703 202.809 132.804 202.881 132.891 202.939Z" fill="#DBCDB0"/>
<path d="M134.471 203.91C133.921 203.635 133.399 203.302 132.892 202.939C133.399 203.302 133.935 203.635 134.471 203.91Z" fill="#FDF2DC"/>
<path d="M132.616 202.737C132.123 202.36 131.645 201.969 131.181 201.52C131.63 201.969 132.109 202.36 132.616 202.737Z" fill="#FDF2DC"/>
<path opacity="0.55" d="M250.305 82.931C244.711 77.3405 243.146 71.3154 243.146 71.3154L131.196 182.967C126.066 188.094 126.066 196.407 131.196 201.534C131.645 201.983 132.123 202.389 132.63 202.751C132.732 202.823 132.819 202.896 132.92 202.968C133.428 203.33 133.949 203.649 134.5 203.939L253.044 85.4656C252.102 84.7124 251.262 83.8869 250.305 82.931Z" fill="#CABD9A"/>
<path opacity="0.49" d="M131.355 188.079C131.5 188.224 131.688 188.297 131.862 188.297C132.051 188.297 132.239 188.224 132.369 188.079L244.798 75.7184C244.537 75.2404 244.305 74.7769 244.103 74.3569L131.34 187.051C131.065 187.341 131.065 187.79 131.355 188.079Z" fill="#B2A383"/>
<path opacity="0.49" d="M130.051 194.481C130.196 194.626 130.384 194.698 130.558 194.698C130.732 194.698 130.935 194.626 131.065 194.481L246.784 78.9046C246.494 78.4846 246.218 78.079 245.958 77.688L130.051 193.467C129.775 193.742 129.775 194.206 130.051 194.481Z" fill="#B2A383"/>
<path opacity="0.49" d="M136.674 193.395C136.819 193.54 137.007 193.612 137.181 193.612C137.369 193.612 137.558 193.54 137.688 193.395L249.218 81.9319C248.885 81.5699 248.566 81.2078 248.262 80.8457L136.659 192.381C136.384 192.656 136.384 193.105 136.674 193.395Z" fill="#B2A383"/>
<path opacity="0.49" d="M135.166 200.202C135.311 200.347 135.5 200.419 135.674 200.419C135.847 200.419 136.05 200.347 136.181 200.202L251.856 84.4806C251.508 84.1765 251.146 83.8434 250.783 83.5103L135.152 199.188C134.891 199.463 134.891 199.927 135.166 200.202Z" fill="#B2A383"/>
<path opacity="0.49" d="M142.47 199.188C142.615 199.333 142.789 199.391 142.978 199.391C143.166 199.391 143.354 199.319 143.499 199.174L255.116 86.9577C254.725 86.697 254.319 86.4218 253.914 86.1177L142.47 198.16C142.18 198.45 142.18 198.913 142.47 199.188Z" fill="#B2A383"/>
<path opacity="0.49" d="M144.992 200.68C144.702 200.97 144.702 201.419 144.992 201.708C145.137 201.853 145.326 201.926 145.499 201.926C145.688 201.926 145.876 201.853 146.007 201.708L258.754 89.0142C258.334 88.8259 257.87 88.5942 257.392 88.3335L144.992 200.68Z" fill="#B2A383"/>
<path d="M159.991 171.018C159.991 171.018 155.774 175.233 151.687 179.346C147.789 183.286 144.007 187.138 144.151 187.138L171.933 214.903L173.193 200.839L173.222 200.448L187.758 198.783L159.991 171.018Z" fill="#FFCE55"/>
<path d="M144.137 187.138L171.918 214.903L173.179 200.839L151.673 179.346C147.789 183.286 144.007 187.138 144.137 187.138Z" fill="#FFB229"/>
<path d="M181.048 116.721L118.762 178.97C110.284 187.442 96.5455 187.442 88.0677 178.97L58.5765 149.496C49.2147 140.14 49.2147 124.962 58.5765 115.591L119.254 54.9496C123.834 50.3729 131.268 50.3729 135.848 54.9496L161.368 80.4546L159.6 82.4244C159.6 82.4244 161.47 88.9998 166.832 94.0834C173.382 100.282 177.947 100.905 177.947 100.905L180.063 99.138L181.063 100.137C185.628 104.714 185.628 112.144 181.048 116.721Z" fill="#239B8C"/>
<path d="M77.4017 144.152L54.4319 121.181C49.5336 130.262 50.9103 141.82 58.5911 149.496L82.1985 173.089L88.0823 178.969C96.5601 187.442 110.298 187.442 118.776 178.969L181.063 116.72C185.642 112.144 185.642 104.714 181.063 100.137L179.947 99.0507L178.048 101.049C178.048 101.049 172.962 100.166 166.759 93.8947C160.817 87.8986 159.6 82.3805 159.6 82.3805L161.441 80.6136L157.325 76.4424L89.5749 144.137C86.2128 147.497 80.7638 147.512 77.4017 144.152Z" fill="#1E7068"/>
<path d="M94.4008 147.28C89.2707 152.407 89.2707 160.721 94.4008 165.848C99.531 170.975 107.849 170.975 112.98 165.848L178.034 101.079C178.034 101.079 172.556 99.8332 166.687 93.9675C161.093 88.3769 159.455 82.5112 159.455 82.5112L94.4008 147.28Z" fill="#FDF2DC"/>
<path d="M118.776 178.97L181.063 116.721C182.715 115.069 183.758 113.042 184.222 110.927L115.008 179.433C104.922 187.891 88.082 178.97 88.082 178.97C96.5453 187.442 110.298 187.442 118.776 178.97Z" fill="#155951"/>
<path d="M96.1106 167.267C96.0092 167.195 95.9222 167.122 95.8208 167.05C95.9222 167.137 96.0092 167.209 96.1106 167.267Z" fill="#DBCDB0"/>
<path opacity="0.55" d="M166.788 93.953C161.194 88.3624 159.629 82.3374 159.629 82.3374L94.4008 147.28C89.2707 152.407 89.2707 160.721 94.4008 165.848C94.8501 166.297 95.3283 166.702 95.8355 167.064C95.937 167.137 96.0239 167.209 96.1254 167.282C96.6326 167.644 97.1543 167.962 97.705 168.252L169.527 96.4731C168.585 95.7344 167.745 94.9089 166.788 93.953Z" fill="#CABD9A"/>
<path opacity="0.49" d="M94.5599 152.407C94.7048 152.552 94.8932 152.625 95.0671 152.625C95.2555 152.625 95.4439 152.552 95.5744 152.407L161.281 86.7403C161.02 86.2624 160.788 85.7989 160.585 85.3789L94.5454 151.379C94.2846 151.654 94.2846 152.118 94.5599 152.407Z" fill="#B2A383"/>
<path opacity="0.49" d="M93.2705 158.809C93.4154 158.954 93.6038 159.026 93.7777 159.026C93.9661 159.026 94.1545 158.954 94.2849 158.809L163.267 89.9266C162.977 89.5065 162.702 89.101 162.441 88.71L93.256 157.795C92.9807 158.07 92.9807 158.519 93.2705 158.809Z" fill="#B2A383"/>
<path opacity="0.49" d="M99.8788 157.723C100.024 157.867 100.212 157.94 100.386 157.94C100.574 157.94 100.763 157.867 100.893 157.723L165.701 92.9534C165.368 92.5914 165.049 92.2293 164.745 91.8672L99.8643 156.709C99.6034 156.984 99.6034 157.433 99.8788 157.723Z" fill="#B2A383"/>
<path opacity="0.49" d="M98.3858 164.53C98.5308 164.675 98.7191 164.747 98.8931 164.747C99.0814 164.747 99.2698 164.675 99.4003 164.53L168.353 95.5026C168.005 95.1985 167.643 94.8653 167.281 94.5322L98.3858 163.516C98.096 163.791 98.096 164.255 98.3858 164.53Z" fill="#B2A383"/>
<path opacity="0.49" d="M105.69 163.516C105.835 163.661 106.009 163.719 106.197 163.719C106.386 163.719 106.574 163.646 106.719 163.501L171.614 97.9792C171.223 97.7185 170.817 97.4433 170.411 97.1392L105.69 162.473C105.4 162.777 105.4 163.226 105.69 163.516Z" fill="#B2A383"/>
<path opacity="0.49" d="M108.212 165.008C107.922 165.297 107.922 165.746 108.212 166.036C108.356 166.181 108.545 166.253 108.719 166.253C108.907 166.253 109.096 166.181 109.226 166.036L175.251 100.05C174.831 99.8621 174.367 99.6303 173.889 99.3696L108.212 165.008Z" fill="#B2A383"/>
<path d="M129.5 65.2036L67.2138 127.438C58.736 135.911 44.9977 135.911 36.5198 127.438L7.02868 97.9647C-2.33313 88.6086 -2.33313 73.4301 7.02868 64.0594L67.6921 3.43253C72.2715 -1.14418 79.7059 -1.14418 84.2854 3.43253L109.806 28.9375L108.038 30.9073C108.038 30.9073 109.907 37.4827 115.269 42.5663C121.82 48.7651 126.385 49.3879 126.385 49.3879L128.5 47.6209L129.5 48.6203C134.08 53.197 134.08 60.6124 129.5 65.2036Z" fill="#FF5850"/>
<path d="M25.8392 92.6205L2.8694 69.6646C-2.02889 78.7456 -0.652149 90.3032 7.0286 97.9793L30.636 121.573L36.5198 127.453C44.9976 135.925 58.736 135.925 67.2138 127.453L129.5 65.2037C134.08 60.627 134.08 53.1971 129.5 48.6204L128.384 47.5341L126.486 49.5328C126.486 49.5328 121.399 48.6494 115.197 42.3781C109.255 36.382 108.038 30.8639 108.038 30.8639L109.878 29.097L105.762 24.9258L38.0124 92.606C34.6503 95.9661 29.2013 95.9806 25.8392 92.6205Z" fill="#ED482E"/>
<path d="M42.8383 95.7633C37.7082 100.89 37.7082 109.204 42.8383 114.331C47.9685 119.458 56.2869 119.458 61.417 114.331L126.471 49.5617C126.471 49.5617 120.994 48.3161 115.124 42.4504C109.53 36.8599 107.893 30.9941 107.893 30.9941L42.8383 95.7633Z" fill="#FDF2DC"/>
<path d="M67.2135 127.438L129.5 65.1893C131.152 63.5382 132.196 61.5106 132.659 59.396L63.4456 127.902C53.3592 136.36 36.5195 127.438 36.5195 127.438C44.9973 135.911 58.7357 135.911 67.2135 127.438Z" fill="#BC422E"/>
<path d="M44.5481 115.75C44.4467 115.678 44.3597 115.605 44.2583 115.547C44.3597 115.605 44.4612 115.678 44.5481 115.75Z" fill="#DBCDB0"/>
<path d="M46.128 116.706C45.5773 116.431 45.0556 116.098 44.5483 115.736C45.0701 116.112 45.5918 116.431 46.128 116.706Z" fill="#FDF2DC"/>
<path d="M44.2731 115.533C43.7804 115.156 43.3021 114.765 42.8384 114.316C43.2876 114.765 43.7804 115.171 44.2731 115.533Z" fill="#FDF2DC"/>
<path opacity="0.55" d="M115.226 42.4359C109.632 36.8453 108.067 30.8203 108.067 30.8203L42.8383 95.7632C37.7082 100.89 37.7082 109.204 42.8383 114.331C43.2876 114.78 43.7658 115.185 44.273 115.547C44.3745 115.62 44.4614 115.692 44.5629 115.75C45.0701 116.112 45.5918 116.431 46.1425 116.721L117.965 44.9415C117.037 44.2173 116.197 43.3918 115.226 42.4359Z" fill="#CABD9A"/>
<path opacity="0.49" d="M43.0123 100.876C43.1572 101.021 43.3456 101.093 43.5195 101.093C43.7079 101.093 43.8963 101.021 44.0267 100.876L109.733 35.2086C109.472 34.7306 109.241 34.2672 109.038 33.8472L43.0123 99.8474C42.7225 100.137 42.7225 100.586 43.0123 100.876Z" fill="#B2A383"/>
<path opacity="0.49" d="M41.7079 107.278C41.8528 107.423 42.0412 107.495 42.2151 107.495C42.4035 107.495 42.5919 107.423 42.7223 107.278L111.704 38.3953C111.414 37.9753 111.139 37.5698 110.878 37.1787L41.6934 106.264C41.4325 106.539 41.4325 107.002 41.7079 107.278Z" fill="#B2A383"/>
<path opacity="0.49" d="M48.3307 106.191C48.4756 106.336 48.664 106.409 48.8379 106.409C49.0263 106.409 49.2147 106.336 49.3451 106.191L114.168 41.4222C113.834 41.0601 113.516 40.698 113.211 40.3359L48.3307 105.163C48.0408 105.453 48.0408 105.916 48.3307 106.191Z" fill="#B2A383"/>
<path opacity="0.49" d="M46.8237 113.013C46.9686 113.158 47.157 113.23 47.3309 113.23C47.5193 113.23 47.7077 113.158 47.8381 113.013L116.805 43.9855C116.458 43.6814 116.095 43.3483 115.733 43.0151L46.8237 111.984C46.5484 112.274 46.5484 112.723 46.8237 113.013Z" fill="#B2A383"/>
<path opacity="0.49" d="M54.1275 111.985C54.2725 112.13 54.4464 112.187 54.6348 112.187C54.8232 112.187 55.0116 112.115 55.1565 111.97L120.052 46.4479C119.66 46.1872 119.254 45.9121 118.849 45.6079L54.1275 110.971C53.8377 111.246 53.8377 111.709 54.1275 111.985Z" fill="#B2A383"/>
<path opacity="0.49" d="M56.649 113.491C56.3592 113.781 56.3592 114.23 56.649 114.519C56.7939 114.664 56.9823 114.737 57.1562 114.737C57.3446 114.737 57.533 114.664 57.6635 114.519L123.703 48.5191C123.283 48.3308 122.819 48.0991 122.341 47.8384L56.649 113.491Z" fill="#B2A383"/>
</svg>
