<svg width="324" height="302" viewBox="0 0 324 302" fill="none" xmlns="http://www.w3.org/2000/svg">
<g clip-path="url(#clip0_215_9751)">
<path d="M134.421 3.77386L145.618 66.9863C145.953 68.8912 144.612 70.6892 142.687 70.9103L94.9247 76.9533L83.9702 12.6136L129.878 0.841542C131.953 0.306448 134.05 1.65489 134.421 3.77386Z" fill="#1E7068"/>
<path d="M142.922 70.989C142.844 71.0032 142.772 71.0104 142.694 71.0246L94.8249 77.0819L94.8035 76.9749L83.8347 12.5281L129.842 0.734667C130.884 0.470687 131.946 0.641917 132.845 1.21982C133.743 1.79772 134.342 2.69668 134.528 3.7526L145.725 66.9651C145.896 67.9211 145.668 68.87 145.09 69.6477C144.555 70.3611 143.792 70.832 142.922 70.989Z" fill="#E0E0E0"/>
<path d="M128.223 0.941406L132.859 1.70481L144.349 66.5725L144.584 67.9138L139.87 68.7414L128.223 0.941406Z" fill="#EBEBEB"/>
<path d="M83.7563 12.507C83.7563 12.507 99.4607 3.01083 128.145 0.699219L139.863 68.8345L94.4755 75.8692L83.7563 12.507Z" fill="white"/>
<path d="M83.7563 12.5066C83.7563 12.5066 83.7777 12.6065 83.8134 12.8063C83.8491 13.006 83.899 13.2986 83.9703 13.691C84.1058 14.4686 84.3055 15.6244 84.5622 17.1298C85.0757 20.1406 85.8246 24.5427 86.7731 30.1148C88.6631 41.259 91.3518 57.0978 94.5326 75.8618L94.4684 75.8189C108.162 73.6928 123.573 71.3028 139.855 68.7842L139.806 68.8556C139.67 68.0494 139.52 67.179 139.371 66.3085C135.141 41.6799 131.233 18.9277 128.102 0.720272L128.152 0.763079C121.142 1.32671 114.801 2.33269 109.281 3.53843C103.761 4.74418 99.0542 6.14969 95.2672 7.491C91.473 8.82516 88.5917 10.0951 86.6661 11.0155C86.1883 11.2509 85.7675 11.4578 85.3967 11.6433C85.0401 11.8288 84.7334 11.9929 84.4909 12.1213C84.0131 12.3639 83.792 12.4852 83.7563 12.5066C83.7563 12.5066 83.8134 12.4709 83.9346 12.3996C84.0559 12.3282 84.2413 12.2284 84.4767 12.0928C84.7191 11.9644 85.0187 11.8003 85.3824 11.6148C85.7461 11.4293 86.1669 11.2224 86.6447 10.9798C88.5703 10.0452 91.4516 8.77522 95.2386 7.42678C99.0328 6.07835 103.733 4.6657 109.26 3.45282C114.78 2.23994 121.127 1.22683 128.138 0.65606L128.181 0.648926L128.188 0.691733C131.319 18.8992 135.241 41.6514 139.478 66.28C139.627 67.1504 139.777 68.028 139.913 68.827L139.92 68.8841L139.863 68.8913C123.581 71.4098 108.169 73.7999 94.4755 75.9188L94.4256 75.926L94.4185 75.876C91.2519 57.0978 88.5775 41.2519 86.7018 30.0934C85.7675 24.5213 85.0258 20.1192 84.5195 17.1156C84.2698 15.6173 84.0773 14.4615 83.9489 13.6838C83.8847 13.2986 83.8348 12.9989 83.8063 12.7991C83.7706 12.6065 83.7563 12.5066 83.7563 12.5066Z" fill="#E0E0E0"/>
<path d="M85.7033 11.9714C86.7232 16.7944 89.9254 34.374 89.9254 34.374L91.7868 30.2003L94.9177 32.89L90.1037 8.48975L86.5734 10.2092C85.9102 10.5302 85.5536 11.258 85.7033 11.9714Z" fill="#E0E0E0"/>
<path d="M141.253 68.5063C141.253 68.5063 141.239 68.4493 141.218 68.3351C141.196 68.2138 141.161 68.0497 141.125 67.8286C141.047 67.3791 140.925 66.7156 140.768 65.8737C140.469 64.1685 140.034 61.7071 139.499 58.6678C138.436 52.582 137.024 44.156 135.477 34.8596C133.922 25.5561 132.51 17.1373 131.49 11.0372C130.969 7.99078 130.549 5.52934 130.256 3.82418C130.113 2.97516 129.999 2.31165 129.921 1.86217C129.885 1.64099 129.857 1.46976 129.835 1.34848C129.814 1.23432 129.814 1.17725 129.814 1.17725C129.814 1.17725 129.828 1.23432 129.85 1.34848C129.871 1.46976 129.907 1.63386 129.942 1.85503C130.021 2.30451 130.142 2.96803 130.299 3.80991C130.598 5.51508 131.034 7.97651 131.568 11.0158C132.631 17.1016 134.043 25.5276 135.591 34.8311C137.146 44.1275 138.558 52.5463 139.577 58.6463C140.098 61.6928 140.519 64.1543 140.811 65.8594C140.954 66.7084 141.068 67.3719 141.146 67.8214C141.182 68.0426 141.211 68.2138 141.232 68.3351C141.246 68.4493 141.253 68.5063 141.253 68.5063Z" fill="#E0E0E0"/>
<path d="M142.494 68.2847C142.459 68.2918 139.834 53.3235 136.625 34.852C133.415 16.3806 130.841 1.40509 130.869 1.39795C130.905 1.39082 133.53 16.3592 136.739 34.8306C139.948 53.3021 142.523 68.2776 142.494 68.2847Z" fill="#E0E0E0"/>
<path d="M31.6724 20.1909L43.2617 85.6293C43.4685 86.8137 44.7095 87.5699 45.9789 87.2774L94.9248 76.9608C96.0945 76.6897 94.9605 74.6635 94.7679 73.5647L70.7479 15.0397C70.5553 13.941 69.4641 13.199 68.2731 13.3488L33.6551 17.708C32.3642 17.8721 31.4585 18.9994 31.6724 20.1909Z" fill="#E0E0E0"/>
<path d="M38.6475 16.7735L51.3636 85.3869L94.7537 75.9621L83.9704 12.6069L38.6475 16.7735Z" fill="#EBEBEB"/>
<path d="M42.3916 14.9609C42.3916 14.9609 67.9522 5.38628 83.9132 13.1059L94.6966 76.461L54.7154 84.5659L42.3916 14.9609Z" fill="white"/>
<path d="M42.4487 14.4617C42.5343 14.9611 47.5837 43.3425 54.8296 84.0525L54.7654 84.0097C66.3832 81.6553 79.1278 79.0725 92.4359 76.3685C93.2132 76.2116 93.9906 76.0546 94.7466 75.8977L94.6967 75.969C90.6173 51.9968 86.8802 29.9794 83.9276 12.6139L83.9561 12.6495C83.2144 12.3285 82.4941 11.9717 81.7381 11.722C81.5527 11.6507 81.3672 11.5865 81.1818 11.5151C80.9964 11.4438 80.811 11.3796 80.6255 11.3296C80.2475 11.2155 79.8767 11.1013 79.5058 10.9943C78.0153 10.5876 76.539 10.2737 75.0841 10.0811C73.6363 9.8599 72.2099 9.76715 70.8264 9.68867C70.1346 9.66727 69.4499 9.64586 68.7795 9.64586C68.4443 9.64586 68.1091 9.653 67.7811 9.653C67.453 9.653 67.1249 9.66013 66.7969 9.6744C64.2009 9.76002 61.7832 10.0026 59.5652 10.3165C57.3472 10.6233 55.336 11.0014 53.5316 11.3867C49.9229 12.1572 47.1558 12.9563 45.2872 13.5342C44.3529 13.8267 43.6469 14.055 43.169 14.2191C42.7055 14.3761 42.4915 14.4474 42.4487 14.4617C42.4487 14.4617 42.6912 14.369 43.1619 14.1977C43.6326 14.0336 44.3458 13.7911 45.2801 13.4985C47.1486 12.9135 49.9158 12.1073 53.5174 11.3296C55.3217 10.9444 57.3329 10.5591 59.5509 10.2452C61.7689 9.93125 64.1866 9.68154 66.7897 9.59592C67.1178 9.58165 67.4459 9.57452 67.7739 9.57452C68.102 9.57452 68.4372 9.56738 68.7724 9.56738C69.4428 9.56738 70.1274 9.58879 70.8192 9.61019C72.2028 9.68867 73.6363 9.78142 75.0912 10.0026C76.5532 10.1952 78.0295 10.5091 79.5272 10.9158C79.8981 11.03 80.2689 11.137 80.6469 11.2511C80.8395 11.3011 81.0178 11.3724 81.2032 11.4438C81.3886 11.5151 81.5741 11.5793 81.7595 11.6507C82.5155 11.9004 83.2358 12.2571 83.9846 12.5782L84.006 12.5853L84.0132 12.6139C86.9729 29.9794 90.7242 51.9968 94.8108 75.969L94.8179 76.0261L94.7609 76.0403C94.0049 76.1902 93.2275 76.3543 92.4501 76.5112C79.1421 79.2081 66.3975 81.7908 54.7797 84.1452L54.7226 84.1595L54.7155 84.1024C47.5409 43.3497 42.5343 14.9611 42.4487 14.4617Z" fill="#E0E0E0"/>
<path d="M33.4983 19.7914L38.6475 16.7734L51.3636 85.3868L45.059 85.0943L33.4983 19.7914Z" fill="#EBEBEB"/>
<path d="M46.3569 83.4673C46.3212 83.4744 43.7466 69.0697 40.6015 51.3046C37.4563 33.5323 34.9317 19.1204 34.9602 19.1133C34.9959 19.1061 37.5705 33.5037 40.7156 51.2831C43.8608 69.0483 46.3854 83.4601 46.3569 83.4673Z" fill="#E0E0E0"/>
<path d="M38.1909 28.6597L35.2668 40.4888L41.493 47.2952L38.1909 28.6597Z" fill="#F5F5F5"/>
<path d="M47.7833 82.8252C47.7476 82.8324 45.2942 69.0983 42.2917 52.1608C39.2892 35.2161 36.8858 21.4749 36.9143 21.4678C36.95 21.4606 39.4033 35.1876 42.4058 52.1394C45.4083 69.0769 47.8189 82.8181 47.7833 82.8252Z" fill="#E0E0E0"/>
<path d="M49.6589 84.9731C49.6232 84.9802 47.0343 70.4756 43.8607 52.5892C40.6941 34.6956 38.1481 20.1839 38.1837 20.1768C38.2194 20.1696 40.8082 34.6671 43.9819 52.5678C47.1485 70.4542 49.6945 84.966 49.6589 84.9731Z" fill="#E0E0E0"/>
<path d="M78.4216 20.3762C78.4145 20.4048 78.0365 20.3619 77.3519 20.2692C76.6672 20.1693 75.6759 20.0552 74.4421 19.9339C71.9816 19.6984 68.5654 19.57 64.8141 19.8768C61.0556 20.1907 57.7036 20.8756 55.3216 21.5106C54.1306 21.8245 53.1678 22.1028 52.5045 22.3168C51.8412 22.5237 51.4704 22.6236 51.4632 22.6022C51.4561 22.5808 51.8056 22.431 52.4546 22.1813C53.1036 21.9316 54.0521 21.6105 55.2431 21.2609C57.6252 20.5617 60.9914 19.8269 64.7784 19.5058C68.5583 19.199 72.003 19.3702 74.4706 19.677C75.7044 19.8269 76.6957 19.9838 77.3733 20.1265C78.0508 20.2621 78.4288 20.3548 78.4216 20.3762Z" fill="#E0E0E0"/>
<path d="M79.3132 25.8414C79.3061 25.8699 78.9281 25.8271 78.2435 25.7343C77.5588 25.6345 76.5675 25.5203 75.3337 25.399C72.8732 25.1636 69.457 25.0352 65.7057 25.3419C61.9472 25.6559 58.5952 26.3408 56.2132 26.9758C55.0222 27.2897 54.0594 27.5679 53.3961 27.782C52.7328 27.9889 52.362 28.0888 52.3548 28.0602C52.3477 28.0388 52.6972 27.889 53.3462 27.6393C53.9952 27.3896 54.9437 27.0685 56.1347 26.7189C58.5168 26.0197 61.883 25.2849 65.67 24.9638C69.4499 24.657 72.8946 24.8282 75.3622 25.135C76.596 25.2849 77.5873 25.4418 78.2649 25.5845C78.9424 25.7272 79.3132 25.82 79.3132 25.8414Z" fill="#E0E0E0"/>
<path d="M80.2046 31.3067C80.1975 31.3352 79.8195 31.2924 79.1348 31.1997C78.4502 31.0998 77.4588 30.9856 76.225 30.8643C73.7645 30.6289 70.3484 30.5005 66.597 30.8073C62.8385 31.1212 59.4866 31.8061 57.1045 32.4411C55.9135 32.755 54.9507 33.0333 54.2875 33.2473C53.6242 33.4542 53.2533 33.5541 53.2462 33.5255C53.2391 33.5041 53.5885 33.3543 54.2375 33.1046C54.8865 32.8549 55.8351 32.5338 57.0261 32.1842C59.4081 31.4851 62.7744 30.7502 66.5614 30.4291C70.3412 30.1224 73.7859 30.2936 76.2535 30.6004C77.4874 30.7502 78.4787 30.9072 79.1562 31.0498C79.8337 31.1925 80.2046 31.2782 80.2046 31.3067Z" fill="#E0E0E0"/>
<path d="M81.0891 36.7715C81.082 36.8001 80.704 36.7573 80.0193 36.6645C79.3347 36.5646 78.3434 36.4505 77.1095 36.3292C74.6491 36.0937 71.2329 35.9653 67.4815 36.2721C63.7231 36.586 60.3711 37.271 57.9891 37.9059C56.798 38.2199 55.8352 38.4981 55.172 38.7121C54.5087 38.919 54.1379 39.0189 54.1307 38.9904C54.1236 38.969 54.4731 38.8192 55.122 38.5695C55.771 38.3197 56.7196 37.9987 57.9106 37.6491C60.2926 36.9499 63.6589 36.215 67.4459 35.894C71.2258 35.5872 74.6705 35.7584 77.1381 36.0652C78.3719 36.215 79.3632 36.372 80.0407 36.5147C80.7254 36.6574 81.0962 36.743 81.0891 36.7715Z" fill="#E0E0E0"/>
<path d="M82.4583 42.3296C82.4511 42.3582 82.0731 42.3154 81.3885 42.2226C80.7038 42.1227 79.7125 42.0086 78.4787 41.8873C76.0182 41.6519 72.602 41.5234 68.8507 41.8302C65.0922 42.1441 61.7402 42.8291 59.3582 43.464C58.1672 43.778 57.2044 44.0562 56.5411 44.2702C55.8779 44.4772 55.507 44.577 55.4999 44.5485C55.4927 44.5271 55.8422 44.3773 56.4912 44.1276C57.1402 43.8778 58.0887 43.5568 59.2797 43.2072C61.6618 42.508 65.028 41.7731 68.815 41.4521C72.5949 41.1453 76.0396 41.3165 78.5072 41.6233C79.741 41.7731 80.7324 41.9301 81.4099 42.0728C82.0874 42.2155 82.4654 42.3011 82.4583 42.3296Z" fill="#E0E0E0"/>
<path d="M84.8189 49.3284C84.8118 49.357 84.4124 49.3142 83.692 49.2143C83.3355 49.1572 82.8933 49.1073 82.3798 49.0573C81.8663 49.0003 81.2815 48.9289 80.6396 48.8861C79.3488 48.7648 77.8011 48.7077 76.0895 48.6792C74.3779 48.6792 72.4879 48.7363 70.5195 48.8861C68.5511 49.0573 66.6826 49.307 64.9852 49.5924C63.3021 49.8992 61.783 50.2131 60.5278 50.5413C59.8931 50.6911 59.3296 50.8552 58.8375 50.9979C58.3383 51.1335 57.9104 51.2548 57.5681 51.3689C56.8763 51.583 56.484 51.69 56.4769 51.6686C56.4698 51.6472 56.8406 51.4902 57.5253 51.2334C57.8676 51.0978 58.2884 50.9551 58.7805 50.7982C59.2726 50.6412 59.836 50.4557 60.4636 50.2916C61.7117 49.9206 63.2308 49.5853 64.9282 49.2571C66.6255 48.9503 68.5083 48.6863 70.491 48.5222C72.4736 48.3653 74.3707 48.3153 76.0966 48.3367C77.8225 48.3867 79.3701 48.4723 80.6681 48.6293C81.3171 48.6863 81.902 48.7791 82.4154 48.8576C82.9289 48.9289 83.3711 49.0074 83.7277 49.0787C84.4338 49.2143 84.826 49.2999 84.8189 49.3284Z" fill="#E0E0E0"/>
<path d="M86.0743 55.921C86.0743 55.9495 85.6677 55.9281 84.9403 55.8711C84.2129 55.8069 83.1573 55.7569 81.8522 55.7141C79.2419 55.6428 75.6332 55.7498 71.6822 56.2563C67.7311 56.7558 64.1866 57.4692 61.6263 57.9829C60.3925 58.2326 59.3726 58.4324 58.5881 58.5893C57.8678 58.7249 57.4684 58.7963 57.4613 58.7677C57.4541 58.7392 57.8464 58.6322 58.5524 58.4467C59.2585 58.2683 60.2926 58.0114 61.5692 57.7189C64.1224 57.1339 67.667 56.3776 71.6394 55.8782C75.6118 55.3645 79.2491 55.3003 81.8665 55.443C83.1787 55.5215 84.2342 55.6142 84.9617 55.7212C85.682 55.8283 86.0814 55.8996 86.0743 55.921Z" fill="#E0E0E0"/>
<path d="M86.3879 62.9771C86.3879 63.0057 85.9885 63.0128 85.2682 63.0128C84.5479 63.0128 83.5066 63.0199 82.2158 63.077C79.6412 63.1698 76.0895 63.4837 72.2098 64.1115C68.3229 64.7394 64.8569 65.567 62.3607 66.2234C61.1126 66.5516 60.107 66.8369 59.4152 67.0367C58.7235 67.2365 58.3312 67.3292 58.3241 67.3078C58.3169 67.2864 58.6878 67.1366 59.3725 66.9012C60.05 66.6586 61.0484 66.3375 62.2894 65.9737C64.7713 65.2459 68.2445 64.3826 72.1456 63.7477C76.0467 63.1127 79.6198 62.8416 82.2086 62.813C83.4995 62.7916 84.5479 62.8273 85.2753 62.8701C85.9885 62.9129 86.3879 62.9486 86.3879 62.9771Z" fill="#E0E0E0"/>
<path d="M121.113 10.6517C121.113 10.6802 120.664 10.7515 119.851 10.8586C119.031 10.9656 117.854 11.1297 116.399 11.358C113.489 11.8075 109.495 12.5495 105.145 13.6696C100.802 14.7969 96.9432 16.0953 94.1832 17.1156C92.8067 17.6293 91.6941 18.0574 90.9239 18.357C90.1608 18.6567 89.7258 18.8136 89.7186 18.7922C89.7115 18.778 89.8113 18.728 90.011 18.6281C90.2464 18.5211 90.5316 18.3856 90.874 18.2286C91.6228 17.879 92.7211 17.4152 94.0904 16.873C96.8291 15.7814 100.687 14.4473 105.052 13.3129C109.41 12.1856 113.439 11.4793 116.363 11.1011C117.825 10.9085 119.009 10.7801 119.836 10.723C120.214 10.6945 120.521 10.6731 120.785 10.6588C120.999 10.6445 121.113 10.6445 121.113 10.6517Z" fill="#E0E0E0"/>
<path d="M125.199 22.1456C125.199 22.1599 125.085 22.1884 124.864 22.2384C124.6 22.2883 124.279 22.3525 123.887 22.431C122.981 22.6022 121.769 22.8234 120.3 23.1016C117.276 23.6795 113.111 24.5428 108.547 25.6772C103.989 26.8188 99.9028 28.0102 96.9573 28.9163C95.5309 29.3658 94.3542 29.7297 93.477 30.0079C93.099 30.1221 92.7852 30.222 92.5284 30.3004C92.3074 30.3647 92.1932 30.3932 92.1861 30.3789C92.179 30.3647 92.2931 30.3147 92.4999 30.2291C92.7495 30.1292 93.0562 30.0151 93.4271 29.8724C94.233 29.5656 95.4097 29.1589 96.8717 28.6666C99.7958 27.6892 103.882 26.4549 108.447 25.3134C113.018 24.179 117.198 23.3514 120.243 22.8377C121.762 22.5808 122.996 22.3953 123.852 22.2812C124.244 22.2312 124.572 22.1955 124.836 22.1599C125.078 22.1385 125.199 22.1313 125.199 22.1456Z" fill="#E0E0E0"/>
<path d="M125.884 28.5166C125.884 28.5309 125.77 28.5594 125.542 28.6094C125.271 28.6665 124.95 28.7307 124.551 28.8091C123.631 28.9875 122.404 29.223 120.906 29.5083C117.825 30.1005 113.582 30.9424 108.91 31.9769C104.239 33.0114 100.031 34.0388 96.9931 34.8022C95.5168 35.1732 94.2973 35.48 93.3915 35.7083C92.9993 35.801 92.6783 35.8795 92.4073 35.9437C92.1791 35.9937 92.0579 36.0151 92.0579 36.0008C92.0579 35.9865 92.1648 35.9437 92.3859 35.8724C92.6498 35.7939 92.9636 35.694 93.3487 35.5727C94.1903 35.3159 95.4098 34.9663 96.9218 34.5525C99.9457 33.7249 104.146 32.6547 108.825 31.613C113.496 30.5785 117.761 29.7723 120.849 29.2444C122.397 28.9804 123.652 28.7806 124.515 28.6593C124.914 28.6094 125.242 28.5594 125.513 28.5238C125.763 28.5166 125.884 28.5095 125.884 28.5166Z" fill="#E0E0E0"/>
<path d="M127.418 35.6158C127.439 35.7157 119.836 37.2925 110.437 39.126C101.037 40.9668 93.3986 42.3723 93.3843 42.2724C93.3629 42.1725 100.965 40.5958 110.365 38.7622C119.758 36.9286 127.396 35.5159 127.418 35.6158Z" fill="#E0E0E0"/>
<path d="M129.614 42.5863C129.635 42.6862 122.04 44.1916 112.647 45.9467C103.255 47.7018 95.6308 49.0431 95.6094 48.9432C95.588 48.8433 103.183 47.3379 112.576 45.5757C121.969 43.8277 129.593 42.4864 129.614 42.5863Z" fill="#E0E0E0"/>
<path d="M130.998 50.1704C131.012 50.2703 123.381 51.5331 113.946 52.9814C104.51 54.4369 96.8505 55.5285 96.8362 55.4286C96.8219 55.3287 104.453 54.0659 113.888 52.6176C123.324 51.1621 130.984 50.0705 130.998 50.1704Z" fill="#E0E0E0"/>
<path d="M130.491 57.6328C130.506 57.7327 123.773 58.9028 115.443 60.2441C107.113 61.5854 100.352 62.5914 100.338 62.4915C100.324 62.3916 107.056 61.2215 115.386 59.8802C123.709 58.5389 130.477 57.5329 130.491 57.6328Z" fill="#E0E0E0"/>
<path d="M124.08 16.4809C124.08 16.4952 123.966 16.5237 123.752 16.5594C123.488 16.6022 123.174 16.6593 122.803 16.7235C121.919 16.8733 120.735 17.0659 119.301 17.3085C116.349 17.8222 112.291 18.6284 107.869 19.7628C103.447 20.9043 99.4963 22.1529 96.665 23.1232C95.2957 23.6012 94.1617 24.0008 93.3201 24.2933C92.9564 24.4217 92.6569 24.5216 92.4073 24.6072C92.2004 24.6785 92.0863 24.7071 92.0792 24.6928C92.0721 24.6785 92.179 24.6286 92.3787 24.5358C92.6212 24.4288 92.9136 24.3075 93.2631 24.1577C94.0333 23.8295 95.1673 23.3872 96.5723 22.8735C99.3893 21.839 103.333 20.5405 107.769 19.3989C112.205 18.2645 116.285 17.494 119.252 17.0445C120.735 16.8162 121.94 16.6593 122.775 16.5736C123.153 16.538 123.474 16.5023 123.737 16.4809C123.959 16.4738 124.073 16.4666 124.08 16.4809Z" fill="#E0E0E0"/>
<path d="M317.652 0H242.54V124.377H317.652V0Z" fill="#E0E0E0"/>
<path d="M315.149 0H240.037V124.377H315.149V0Z" fill="#EBEBEB"/>
<path d="M311.954 2.52588H243.239V121.859H311.954V2.52588Z" fill="white"/>
<path d="M298.575 18.0293H256.319V106.348H298.575V18.0293Z" fill="#EBEBEB"/>
<path d="M256.319 75.0988C256.219 66.8512 263.636 58.7963 271.802 57.6405C275.696 57.0911 279.832 57.8616 283.47 56.3705C289.967 53.7093 292.035 45.0765 298.568 42.5151L298.867 106.355H256.319V75.0988Z" fill="#E0E0E0"/>
<path d="M29.3617 207.246C25.4605 204.791 20.9817 203.25 16.396 202.779C14.2778 202.565 11.9599 202.622 10.2626 203.907C9.89884 204.178 9.54938 204.584 9.62783 205.027C9.68488 205.355 9.96303 205.59 10.2269 205.79C15.5116 209.821 23.4921 210.328 29.3617 207.246Z" fill="#E0E0E0"/>
<path d="M29.0338 206.875C26.1026 204.585 23.15 202.28 20.661 199.505C18.172 196.737 16.1537 193.44 15.4119 189.795C15.1837 188.689 15.1195 187.426 15.8256 186.548C22.4939 191.757 27.7429 198.506 29.0338 206.875Z" fill="#E0E0E0"/>
<path d="M29.2904 207.196C28.7911 203.543 28.6057 199.79 29.4473 196.201C30.2888 192.612 32.2358 189.174 35.3025 187.126C36.4579 189.823 35.9586 192.926 35.1456 195.745C33.8904 200.097 31.922 204.249 29.3403 207.973" fill="#E0E0E0"/>
<path d="M35.8374 218.918C31.865 219.403 28.406 221.493 25.4392 224.183C22.4723 226.873 20.3684 230.49 19.4912 234.393C23.3852 234.15 26.6944 231.403 29.0907 228.321C31.487 225.239 33.1487 221.857 35.7804 218.975" fill="#E0E0E0"/>
<path d="M37.2567 220.794C34.0545 212.91 35.217 203.414 40.2164 196.529C42.4772 204.584 41.6499 213.681 37.2567 220.794Z" fill="#E0E0E0"/>
<path d="M45.9005 231.096C42.2989 230.875 38.6331 231.731 35.5022 233.536C32.3713 235.342 29.7896 238.074 28.1707 241.306C27.9496 241.748 27.757 242.305 28.0494 242.697C28.3062 243.04 28.7983 243.068 29.2262 243.04C32.7208 242.811 35.816 240.714 38.3692 238.317C40.9224 235.919 43.1476 233.158 45.9718 231.082" fill="#E0E0E0"/>
<path d="M45.6223 230.533C43.7609 224.583 43.6468 218.097 45.2942 212.083C45.9432 209.707 47.0344 207.21 49.231 206.097C49.4164 206.004 49.6375 205.918 49.8301 205.99C50.0155 206.061 50.1225 206.254 50.2081 206.432C50.9926 208.066 51.2137 209.921 51.1352 211.726C51.0568 213.531 50.6788 215.315 50.3079 217.084C49.6161 220.359 49.2453 223.876 47.4552 226.702C47.0273 227.372 46.6564 228.093 46.3141 228.813C45.9718 229.534 45.9717 229.784 45.6579 230.354" fill="#E0E0E0"/>
<path d="M68.5084 233.943C66.811 227.494 68.6154 219.674 72.6734 214.38C72.973 213.988 73.3723 213.574 73.8573 213.617C74.6061 213.688 74.7987 214.687 74.7631 215.436C74.4778 222.029 72.274 228.528 68.5084 233.943Z" fill="#E0E0E0"/>
<path d="M70.5696 235.356C78.4075 237.396 87.3936 235.413 93.905 230.604C90.0467 228.649 85.4894 228.086 81.2674 229.056C77.0524 230.019 73.2012 231.91 70.5696 235.356Z" fill="#E0E0E0"/>
<path d="M72.3098 231.061C76.6959 223.905 85.1115 219.232 93.4914 218.811C92.5286 222.221 89.7258 224.875 86.5664 226.473C83.407 228.071 79.8767 228.771 76.3964 229.448C75.0413 229.705 73.187 229.998 72.3098 231.061Z" fill="#E0E0E0"/>
<path d="M68.9434 210.214C70.1344 206.14 71.3254 202.03 71.6535 197.806C71.9816 193.576 71.3754 189.159 69.1859 185.528C65.0851 193.461 64.6714 202.729 68.8222 210.642" fill="#E0E0E0"/>
<path d="M82.7437 203.236C87.5363 194.525 97.314 187.561 107.213 186.584C103.39 196.094 92.985 203.443 82.7437 203.236Z" fill="#E0E0E0"/>
<path d="M79.7268 204.948C86.8729 206.04 92.9635 210.606 99.6461 213.374C101.072 213.966 102.613 214.437 104.146 214.237C105.68 214.038 107.192 213.01 107.534 211.498C107.819 210.242 107.249 208.915 106.35 207.995C105.451 207.074 104.268 206.504 103.076 206.011C95.802 202.979 87.9998 202.908 80.333 204.741" fill="#E0E0E0"/>
<path d="M75.5904 209.964C77.2093 210.428 77.7585 211.262 79.0422 212.354C83.3926 216.057 88.606 218.739 94.1475 220.116C94.7251 220.259 95.4811 220.316 95.7664 219.795C96.016 219.339 95.7022 218.789 95.3741 218.383C93.0492 215.479 89.74 213.488 86.2525 212.19C82.765 210.891 79.7483 209.329 75.5833 209.664" fill="#E0E0E0"/>
<path d="M70.9263 179.67C76.7387 185.1 84.9261 187.882 92.8424 187.126C93.2062 187.09 93.5984 187.033 93.8409 186.769C94.3901 186.17 93.7339 185.242 93.0849 184.743C86.6377 179.713 78.8355 177.63 70.9263 179.67Z" fill="#E0E0E0"/>
<path d="M76.4604 177.644C84.1415 171.879 94.6823 170.146 103.804 173.128C100.359 176.524 95.5809 178.35 90.7741 178.85C85.9672 179.356 81.1461 178.821 76.4604 177.644Z" fill="#E0E0E0"/>
<path d="M74.2568 163.725C73.6221 157.289 74.0358 152.209 73.5864 145.746C73.5508 145.232 73.4367 144.611 72.9588 144.419C72.2884 144.162 71.725 144.989 71.5039 145.674C69.5926 151.632 70.6339 158.467 74.2497 163.582" fill="#E0E0E0"/>
<path d="M73.7932 164.431C78.1508 161.734 81.4243 158.209 84.4482 154.071C86.5521 151.189 88.3279 147.743 87.8501 144.204C84.8975 144.147 82.0876 145.774 80.162 148.021C78.2435 150.268 77.0953 153.072 76.2466 155.905C75.3907 158.744 74.7988 161.648 73.7932 164.431Z" fill="#E0E0E0"/>
<path d="M84.2627 161.527C93.8265 157.989 102.756 152.723 110.479 146.06C107.349 144.797 103.761 145.553 100.63 146.816C93.4771 149.705 87.6289 154.578 84.1272 161.456" fill="#E0E0E0"/>
<path d="M76.7385 167.956C81.5811 168.483 86.4949 168.826 91.2946 168.027C96.0159 167.235 100.473 165.366 104.888 163.511C105.252 163.354 105.651 163.175 105.808 162.811C105.979 162.419 105.794 161.934 105.48 161.649C105.159 161.356 104.738 161.22 104.317 161.106C99.5248 159.765 94.3471 160.393 89.6329 161.984C84.9188 163.568 81.0462 165.458 76.7385 167.956Z" fill="#E0E0E0"/>
<path d="M49.1027 179.891C45.8007 173.221 46.0146 165.444 48.8674 158.573C50.8786 161.634 51.121 165.529 50.7502 169.175C50.3865 172.821 49.2739 176.567 49.2026 180.227" fill="#E0E0E0"/>
<path d="M35.9089 173.235C27.6645 173.078 19.42 176.588 13.8215 182.646C17.9366 183.295 22.1729 182.232 25.9172 180.405C29.6614 178.579 32.9848 176.01 36.2797 173.463" fill="#E0E0E0"/>
<path d="M27.0439 170.267C23.0072 169.939 19.1275 169.439 15.2549 170.631C11.3752 171.822 7.84494 174.519 6.2688 178.258C10.0415 178.686 13.8642 177.737 17.3232 176.167C20.775 174.598 23.9201 172.429 27.0439 170.267Z" fill="#E0E0E0"/>
<path d="M40.1736 170.403C36.5435 168.027 32.8206 165.601 28.5986 164.616C24.3765 163.632 19.4769 164.36 16.5315 167.542C19.9477 169.546 24.0984 169.789 28.0637 169.782C32.029 169.782 36.8929 169.732 40.63 171.059" fill="#E0E0E0"/>
<path d="M40.1951 170.595C33.9904 164.502 31.644 153.558 34.133 145.225C39.0112 152.637 41.1936 161.777 40.1951 170.595Z" fill="#E0E0E0"/>
<path d="M57.2544 153.33C58.424 150.611 59.2442 147.75 60.2997 144.982C61.3481 142.214 62.6532 139.489 64.6359 137.291C66.6185 135.094 69.3643 133.453 72.3169 133.31C70.4626 141.693 64.8997 149.185 57.4042 153.373" fill="#E0E0E0"/>
<path d="M54.1663 156.925C52.2336 154.257 49.9942 150.64 47.3696 148.649C44.7451 146.659 41.329 145.453 38.1196 146.216C41.3789 152.052 47.5337 156.155 54.1663 156.925Z" fill="#E0E0E0"/>
<path d="M54.7797 153.551C53.5102 150.326 52.2336 147.065 51.7201 143.641C51.2066 140.216 51.5204 136.549 53.2749 133.56C56.6768 139.995 57.7751 146.908 54.958 153.629" fill="#E0E0E0"/>
<path d="M57.283 133.56C59.2086 127.174 65.0567 122.48 71.3612 120.318C72.1529 120.047 73.0016 119.818 73.8288 119.947C74.6561 120.075 75.4763 120.646 75.6475 121.467C75.8757 122.551 74.9842 123.528 74.1355 124.249C69.2288 128.451 63.452 131.641 57.283 133.56Z" fill="#E0E0E0"/>
<path d="M57.3543 128.337C57.5968 124.22 57.8535 120.047 59.1943 116.144C60.5351 112.241 63.1097 108.588 66.8611 106.883C67.4958 111.043 65.6629 115.174 63.452 118.755C61.2412 122.33 58.5738 125.704 57.2473 129.7" fill="#E0E0E0"/>
<path d="M57.2545 131.169C55.657 126.518 55.4929 120.61 52.7115 116.558C50.7645 113.725 47.6479 111.792 45.9719 108.795C44.8593 111.599 45.2017 114.824 46.3642 117.607C47.5266 120.389 49.4522 122.779 51.5134 124.984C53.5745 127.188 55.336 128.844 57.2545 131.169Z" fill="#E0E0E0"/>
<path d="M57.2829 268.161C57.1617 268.161 57.0547 237.132 57.0404 198.863C57.0333 160.578 57.126 129.557 57.2472 129.557C57.3685 129.557 57.4755 160.578 57.4897 198.863C57.4969 237.125 57.4041 268.161 57.2829 268.161Z" fill="#E0E0E0"/>
<path d="M84.391 175.204C84.3981 175.233 83.9845 175.39 83.2214 175.639C82.3869 175.925 81.3029 176.288 80.012 176.724C77.3091 177.644 73.5862 178.978 69.5496 180.633C65.5558 182.346 61.783 183.737 59.6435 185.599C58.5737 186.519 57.9532 187.511 57.6537 188.232C57.347 188.96 57.29 189.409 57.2472 189.395C57.2329 189.395 57.24 189.281 57.2614 189.067C57.2971 188.86 57.3541 188.546 57.4897 188.16C57.7535 187.397 58.3526 186.334 59.4295 185.349C60.5064 184.365 62.0112 183.48 63.73 182.681C65.4488 181.875 67.353 181.04 69.3784 180.205C73.4222 178.543 77.1736 177.252 79.9122 176.41C81.2815 175.982 82.3941 175.668 83.1714 175.461C83.9488 175.275 84.3839 175.175 84.391 175.204Z" fill="#E0E0E0"/>
<path d="M93.2773 153.372C93.2844 153.387 93.1774 153.501 92.9492 153.722C92.6853 153.972 92.3573 154.279 91.9508 154.657C91.0236 155.499 89.7684 156.64 88.2351 158.031C85.0257 160.892 80.6753 164.766 75.8684 169.047C71.0402 173.349 66.868 177.452 63.9796 180.548C62.5319 182.089 61.3908 183.373 60.6134 184.265C60.2497 184.679 59.9502 185.021 59.7148 185.293C59.508 185.528 59.3939 185.642 59.3796 185.635C59.3653 185.628 59.4581 185.492 59.6435 185.236C59.8289 184.986 60.1071 184.615 60.4779 184.151C61.2196 183.224 62.3251 181.904 63.7443 180.334C66.5828 177.181 70.7335 173.021 75.5689 168.712C80.4114 164.424 84.8189 160.571 88.0282 157.789C89.5973 156.44 90.8881 155.334 91.8367 154.521C92.2646 154.172 92.6069 153.879 92.885 153.651C93.1347 153.458 93.263 153.365 93.2773 153.372Z" fill="#E0E0E0"/>
<path d="M70.6551 173.42C70.5267 173.363 71.5394 171.037 72.545 168.091C73.5578 165.144 74.0356 162.661 74.164 162.683C74.2781 162.697 73.9928 165.251 72.9658 168.241C72.4594 169.732 71.9032 171.037 71.461 171.972C71.0259 172.892 70.7121 173.449 70.6551 173.42Z" fill="#E0E0E0"/>
<path d="M57.3114 192.206C57.29 192.227 57.0262 191.913 56.5697 191.343C56.0634 190.693 55.4286 189.873 54.6655 188.896C53.068 186.826 50.85 183.966 48.3681 180.841C45.8862 177.716 43.604 174.905 41.9566 172.878C41.1792 171.915 40.5231 171.109 40.0096 170.467C39.5531 169.896 39.3106 169.568 39.3392 169.547C39.3606 169.525 39.6458 169.818 40.1451 170.353C40.6443 170.888 41.3432 171.687 42.2062 172.671C43.925 174.648 46.2428 177.43 48.7318 180.562C51.2137 183.694 53.3889 186.584 54.9294 188.703C55.6996 189.766 56.313 190.629 56.7195 191.236C57.1189 191.842 57.3328 192.185 57.3114 192.206Z" fill="#E0E0E0"/>
<path d="M51.3707 184.572C51.2994 184.65 49.709 182.767 48.8817 179.906C48.2683 177.894 48.2398 176.046 48.3183 175.204L48.5179 175.218C48.4324 175.575 48.361 175.768 48.3325 175.761C48.2969 175.753 48.2969 175.554 48.3254 175.183L48.5251 175.197C48.5964 176.032 48.7248 177.815 49.3167 179.77C50.1084 182.553 51.4848 184.493 51.3707 184.572Z" fill="#E0E0E0"/>
<path d="M43.6968 174.919C43.6398 174.983 43.1263 174.341 41.9567 173.905C40.7942 173.456 39.0469 173.356 37.1284 173.52C35.2099 173.663 33.4912 174.005 32.2645 174.305C31.0378 174.612 30.289 174.847 30.2676 174.783C30.2462 174.733 30.9593 174.384 32.186 173.998C33.4056 173.613 35.1457 173.213 37.0999 173.071C39.0397 172.907 40.8798 173.049 42.0779 173.606C43.2903 174.148 43.7325 174.904 43.6968 174.919Z" fill="#E0E0E0"/>
<path d="M41.8781 172.578C41.8424 172.65 40.8653 172.172 39.2179 171.608C37.5704 171.044 35.224 170.445 32.571 170.238C29.9179 170.038 27.5074 170.274 25.7957 170.581C24.077 170.887 23.0428 171.209 23.0143 171.137C23.0072 171.109 23.2568 171.002 23.7204 170.838C24.1839 170.666 24.8686 170.467 25.7315 170.274C27.4503 169.882 29.9037 169.589 32.6066 169.796C35.3025 170.003 37.6845 170.659 39.3249 171.316C40.145 171.637 40.794 171.936 41.2291 172.179C41.657 172.407 41.8923 172.55 41.8781 172.578Z" fill="#E0E0E0"/>
<path d="M57.2545 162.676C57.1333 162.705 56.2632 159.687 55.3146 155.927C54.359 152.167 53.6886 149.099 53.8098 149.063C53.9311 149.035 54.8011 152.053 55.7497 155.813C56.6982 159.58 57.3686 162.647 57.2545 162.676Z" fill="#E0E0E0"/>
<path d="M57.3756 162.676C57.2401 162.719 56.6838 160.7 55.2218 158.638C53.8026 156.526 51.9839 155.47 52.0553 155.363C52.0767 155.313 52.583 155.498 53.2748 155.991C53.9737 156.476 54.8438 157.303 55.5855 158.374C57.1046 160.528 57.4826 162.669 57.3756 162.676Z" fill="#E0E0E0"/>
<path d="M57.283 251.616C57.233 251.623 57.1403 250.866 56.7909 249.554C56.4485 248.234 55.7924 246.365 54.7155 244.181C52.5688 239.801 48.6748 234.243 43.7182 228.678C41.2648 225.874 38.8828 223.227 36.8573 220.687C34.8319 218.154 33.1702 215.743 31.9506 213.61C30.7311 211.476 29.9394 209.65 29.4759 208.359C29.2477 207.709 29.0836 207.203 28.9909 206.853C28.8911 206.504 28.8483 206.325 28.8625 206.318C28.9053 206.304 29.1264 207.032 29.6399 208.294C30.1534 209.557 30.9807 211.355 32.2288 213.446C33.4697 215.543 35.1457 217.919 37.1783 220.423C39.2109 222.935 41.5929 225.567 44.0534 228.378C49.0243 233.957 52.9111 239.58 55.0008 244.039C56.0492 246.265 56.6625 248.162 56.9549 249.504C57.0975 250.174 57.1974 250.702 57.233 251.059C57.283 251.43 57.2972 251.616 57.283 251.616Z" fill="#E0E0E0"/>
<path d="M81.7808 223.94C81.7951 223.976 81.3244 224.212 80.4971 224.661C79.6769 225.125 78.5073 225.838 77.1665 226.866C75.8257 227.893 74.328 229.234 72.7947 230.854C71.2613 232.473 69.6781 234.357 68.0663 236.376C64.8427 240.428 61.8259 244.01 60.0144 246.871C59.0944 248.291 58.4311 249.489 57.9961 250.324C57.5539 251.159 57.3186 251.63 57.29 251.616C57.2758 251.608 57.3186 251.487 57.4113 251.252C57.504 251.023 57.6395 250.674 57.8392 250.246C58.2314 249.382 58.859 248.148 59.7505 246.7C61.505 243.767 64.5003 240.136 67.7168 236.098C69.3357 234.079 70.9333 232.188 72.4951 230.568C74.0642 228.949 75.5975 227.615 76.9739 226.609C78.3504 225.603 79.5557 224.925 80.4115 224.504C80.8394 224.29 81.1817 224.162 81.41 224.062C81.6453 223.969 81.7737 223.926 81.7808 223.94Z" fill="#E0E0E0"/>
<path d="M82.2587 232.916C82.2658 232.98 81.2246 233.108 79.5486 233.308C77.8797 233.522 75.5476 233.8 73.1157 234.578C70.6837 235.37 68.6654 236.576 67.3531 237.603C66.0266 238.631 65.399 239.48 65.3348 239.43C65.3134 239.415 65.4418 239.18 65.7342 238.802C66.0266 238.424 66.4973 237.91 67.1463 237.354C68.4372 236.241 70.4769 234.963 72.973 234.15C75.4692 233.358 77.8298 233.13 79.5129 232.994C81.2032 232.873 82.2516 232.859 82.2587 232.916Z" fill="#E0E0E0"/>
<path d="M66.1193 238.445C65.9767 238.367 67.2033 236.497 68.1519 233.986C69.0434 231.453 69.2502 229.227 69.4071 229.249C69.4641 229.256 69.4641 229.812 69.3643 230.704C69.2573 231.596 69.0434 232.83 68.5727 234.136C68.102 235.434 67.4744 236.526 66.9965 237.282C66.5187 238.038 66.1692 238.481 66.1193 238.445Z" fill="#E0E0E0"/>
<path d="M89.7114 199.832C89.7186 199.847 89.5688 199.925 89.2764 200.061C88.9412 200.211 88.5204 200.403 87.9998 200.639C87.4435 200.881 86.766 201.181 86.0029 201.588C85.2326 201.98 84.3411 202.394 83.4069 202.95C82.9362 203.221 82.4369 203.5 81.9234 203.792C81.41 204.085 80.9036 204.441 80.3616 204.777C79.2704 205.44 78.1792 206.254 77.0096 207.088C74.7274 208.822 72.324 210.877 70.0132 213.246C67.7239 215.636 65.7555 218.111 64.1009 220.451C63.3093 221.65 62.5319 222.77 61.9043 223.883C61.5834 224.433 61.2482 224.953 60.9772 225.481C60.7062 226.002 60.4423 226.509 60.1856 226.987C59.6578 227.936 59.2798 228.849 58.9161 229.627C58.5381 230.404 58.26 231.089 58.0389 231.66C57.8249 232.188 57.6466 232.616 57.504 232.951C57.3756 233.244 57.3043 233.401 57.29 233.394C57.2758 233.386 57.3186 233.229 57.4184 232.923C57.5396 232.573 57.6894 232.131 57.8748 231.596C58.0674 231.018 58.3313 230.319 58.6879 229.527C59.0373 228.735 59.3939 227.814 59.9074 226.844C60.1499 226.352 60.4066 225.845 60.6777 225.31C60.9487 224.782 61.2767 224.254 61.5905 223.691C62.2039 222.563 62.9741 221.422 63.7657 220.216C65.4132 217.84 67.3887 215.343 69.6923 212.932C72.0244 210.541 74.4493 208.487 76.7671 206.753C77.951 205.925 79.0564 205.112 80.169 204.463C80.7182 204.127 81.2316 203.785 81.7523 203.493C82.2729 203.207 82.7721 202.936 83.2571 202.672C84.2056 202.13 85.1114 201.737 85.8959 201.359C86.6733 200.974 87.365 200.696 87.9356 200.482C88.4634 200.275 88.8984 200.111 89.2479 199.975C89.5474 199.868 89.7043 199.818 89.7114 199.832Z" fill="#E0E0E0"/>
<path d="M70.327 212.825C70.2842 212.818 70.5053 212.069 71.3897 211.234C72.2598 210.406 73.843 209.643 75.6831 209.586C77.5231 209.536 79.1135 210.05 80.2046 210.471C81.2958 210.899 81.9377 211.248 81.9163 211.298C81.8878 211.362 81.2102 211.113 80.1048 210.77C78.9994 210.435 77.4446 209.985 75.7044 210.035C73.9714 210.085 72.4737 210.756 71.6036 211.477C70.7122 212.197 70.3983 212.875 70.327 212.825Z" fill="#E0E0E0"/>
<path d="M67.4244 215.821C67.3032 215.75 68.3943 214.152 68.644 211.854C68.9292 209.564 68.2374 207.752 68.3729 207.709C68.4229 207.688 68.6653 208.109 68.8793 208.865C69.0933 209.614 69.2288 210.713 69.0933 211.904C68.9506 213.096 68.5655 214.13 68.1875 214.815C67.8024 215.493 67.4672 215.85 67.4244 215.821Z" fill="#E0E0E0"/>
<path d="M35.8589 256.068C36.5293 267.925 40.1023 279.99 45.5939 292.183H69.4856C74.7275 280.111 78.0509 268.068 78.6429 256.068H35.8589Z" fill="#E0E0E0"/>
<path d="M74.7702 275.252C74.7702 275.374 66.9038 275.474 57.2045 275.474C47.498 275.474 39.6316 275.374 39.6316 275.252C39.6316 275.131 47.498 275.031 57.2045 275.031C66.9038 275.031 74.7702 275.131 74.7702 275.252Z" fill="#FAFAFA"/>
<path d="M74.2352 279.548C74.2352 279.669 66.8609 279.769 57.7678 279.769C48.6675 279.769 41.2932 279.669 41.2932 279.548C41.2932 279.426 48.6675 279.326 57.7678 279.326C66.8609 279.326 74.2352 279.426 74.2352 279.548Z" fill="#FAFAFA"/>
<path d="M45.9789 263.851C46.1001 263.851 46.2 266.32 46.2 269.359C46.2 272.399 46.1001 274.867 45.9789 274.867C45.8577 274.867 45.7578 272.406 45.7578 269.359C45.7578 266.313 45.8577 263.851 45.9789 263.851Z" fill="#FAFAFA"/>
<path d="M58.7807 263.851C58.9019 263.851 59.0017 266.405 59.0017 269.552C59.0017 272.698 58.9019 275.252 58.7807 275.252C58.6594 275.252 58.5596 272.698 58.5596 269.552C58.5596 266.405 58.6594 263.851 58.7807 263.851Z" fill="#FAFAFA"/>
<path d="M70.7977 263.751C70.919 263.751 71.0188 266.356 71.0188 269.566C71.0188 272.777 70.919 275.381 70.7977 275.381C70.6765 275.381 70.5767 272.777 70.5767 269.566C70.5767 266.356 70.6765 263.751 70.7977 263.751Z" fill="#FAFAFA"/>
<path d="M77.8868 263.851C77.8868 263.973 68.6582 264.073 57.2829 264.073C45.9005 264.073 36.6719 263.973 36.6719 263.851C36.6719 263.73 45.9005 263.63 57.2829 263.63C68.6582 263.623 77.8868 263.73 77.8868 263.851Z" fill="#FAFAFA"/>
<path d="M324 292.383C324 292.482 254.985 292.568 169.866 292.568C84.7192 292.568 15.7185 292.482 15.7185 292.383C15.7185 292.283 84.7192 292.197 169.866 292.197C254.985 292.197 324 292.283 324 292.383Z" fill="#263238"/>
<path d="M256.583 111.171C255.121 110.971 253.808 111.649 253.109 112.648C252.411 113.647 252.254 114.917 252.282 116.18C252.311 117.286 252.496 118.463 253.238 119.469C254.129 120.667 255.713 121.438 257.239 121.645C258.765 121.859 260.241 121.573 261.554 121.103C261.896 119.668 261.539 117.878 261.211 116.344C260.976 115.238 260.584 114.111 259.813 113.133C259.043 112.163 257.852 111.35 256.583 111.171Z" fill="#455A64"/>
<path d="M288.148 107.832C288.163 107.839 288.113 108.003 288.013 108.324C287.899 108.681 287.742 109.145 287.549 109.715C287.136 110.921 286.565 112.676 285.895 114.852C285.217 117.028 284.482 119.64 283.734 122.558C282.999 125.476 282.272 128.708 281.615 132.125C280.981 135.543 280.481 138.817 280.104 141.807C279.74 144.796 279.469 147.5 279.305 149.769C279.134 152.038 279.027 153.886 278.977 155.155C278.941 155.762 278.92 156.247 278.898 156.625C278.877 156.961 278.855 157.139 278.848 157.139C278.841 157.139 278.827 156.961 278.827 156.625C278.827 156.254 278.834 155.762 278.834 155.155C278.841 153.878 278.912 152.031 279.048 149.755C279.176 147.479 279.419 144.768 279.768 141.771C280.132 138.774 280.617 135.493 281.259 132.061C281.908 128.636 282.657 125.404 283.406 122.479C284.176 119.561 284.939 116.95 285.645 114.781C286.351 112.612 286.957 110.864 287.414 109.672C287.635 109.102 287.806 108.652 287.941 108.303C288.063 107.989 288.134 107.825 288.148 107.832Z" fill="#263238"/>
<path d="M259.607 117.991C259.621 117.984 259.713 118.12 259.885 118.391C260.07 118.691 260.313 119.083 260.612 119.568C261.247 120.588 262.11 122.094 263.13 123.985C264.157 125.875 265.291 128.165 266.474 130.748C267.637 133.338 268.835 136.227 269.955 139.302C271.06 142.392 271.987 145.374 272.751 148.114C273.492 150.853 274.084 153.343 274.498 155.455C274.926 157.56 275.225 159.272 275.389 160.464C275.468 161.027 275.532 161.484 275.582 161.834C275.625 162.147 275.639 162.312 275.625 162.312C275.61 162.312 275.575 162.155 275.511 161.841C275.446 161.491 275.361 161.042 275.254 160.485C275.047 159.308 274.705 157.603 274.248 155.512C273.799 153.415 273.186 150.939 272.422 148.214C271.645 145.488 270.718 142.513 269.613 139.438C268.493 136.363 267.309 133.488 266.168 130.898C265.005 128.315 263.893 126.018 262.901 124.12C261.917 122.215 261.09 120.695 260.491 119.654C260.213 119.154 259.992 118.755 259.82 118.448C259.664 118.148 259.592 117.999 259.607 117.991Z" fill="#263238"/>
<path d="M285.353 154.67H269.855C269.427 154.67 269.078 154.321 269.078 153.893V153.85C269.078 153.422 269.427 153.072 269.855 153.072H285.353C285.78 153.072 286.13 153.422 286.13 153.85V153.893C286.13 154.321 285.78 154.67 285.353 154.67Z" fill="#1E7068"/>
<path d="M291.693 171.08C291.122 164.83 286.208 163.981 285.26 163.318C285.06 163.175 284.875 162.997 284.718 162.797C284.126 162.062 283.841 161.127 283.841 160.186V153.872H277.928H277.408H271.495V160.186C271.495 161.127 271.21 162.069 270.618 162.797C270.461 162.997 270.276 163.175 270.076 163.318C269.128 163.981 264.214 164.83 263.643 171.08C263.073 177.33 260.997 191.521 264.685 196.066C268.086 200.254 271.403 200.503 276.937 200.51C277.187 200.51 277.429 200.51 277.672 200.51C277.914 200.51 278.157 200.51 278.406 200.51C283.941 200.496 287.257 200.246 290.659 196.066C294.346 191.528 292.263 177.33 291.693 171.08Z" fill="#1E7068"/>
<path d="M285.738 154.721C285.738 154.821 282.093 154.906 277.6 154.906C273.107 154.906 269.463 154.821 269.463 154.721C269.463 154.621 273.107 154.535 277.6 154.535C282.093 154.535 285.738 154.614 285.738 154.721Z" fill="#263238"/>
<path d="M295.637 103.03C295.081 101.611 293.597 100.712 292.092 100.505C290.587 100.305 289.054 100.705 287.642 101.275C286.401 101.775 285.16 102.453 284.426 103.573C283.548 104.9 283.527 106.676 284.105 108.153C284.682 109.637 285.795 110.857 287.043 111.849C288.854 111.542 290.687 110.443 292.256 109.487C293.383 108.802 294.453 107.953 295.152 106.826C295.837 105.699 296.122 104.258 295.637 103.03Z" fill="#455A64"/>
<path d="M255.805 134.045C255.142 133.046 255.228 131.683 255.777 130.62C256.326 129.557 257.275 128.751 258.273 128.101C259.157 127.531 260.149 127.038 261.197 127.06C262.445 127.088 263.6 127.88 264.292 128.922C264.984 129.964 265.269 131.226 265.348 132.475C264.335 133.502 262.802 134.187 261.475 134.765C260.527 135.179 259.5 135.486 258.458 135.429C257.431 135.379 256.383 134.908 255.805 134.045Z" fill="#455A64"/>
<path d="M272.579 126.303C271.916 125.304 272.002 123.942 272.558 122.879C273.107 121.816 274.056 121.009 275.054 120.36C275.939 119.789 276.93 119.297 277.978 119.319C279.226 119.347 280.375 120.139 281.073 121.181C281.765 122.222 282.051 123.485 282.129 124.734C281.116 125.761 279.583 126.446 278.256 127.024C277.308 127.438 276.281 127.744 275.24 127.687C274.205 127.637 273.15 127.174 272.579 126.303Z" fill="#455A64"/>
<path d="M294.745 125.098C295.544 124.184 295.637 122.807 295.23 121.666C294.817 120.524 293.975 119.59 293.055 118.805C292.249 118.113 291.315 117.485 290.252 117.371C288.99 117.235 287.735 117.87 286.9 118.826C286.066 119.782 285.609 121.017 285.367 122.258C286.251 123.421 287.699 124.32 288.947 125.076C289.846 125.618 290.837 126.068 291.885 126.146C292.934 126.225 294.054 125.897 294.745 125.098Z" fill="#455A64"/>
<path d="M271.595 116.379C271.353 114.981 270.468 114.018 269.506 113.739C268.543 113.461 267.516 113.761 266.553 114.225C265.704 114.638 264.841 115.223 264.271 116.258C263.586 117.492 263.422 119.205 263.672 120.674C263.921 122.144 264.542 123.385 265.262 124.413C266.46 124.22 267.751 123.257 268.849 122.422C269.641 121.823 270.404 121.067 270.953 120.018C271.503 118.969 271.809 117.599 271.595 116.379Z" fill="#455A64"/>
<path d="M279.055 107.547C277.593 107.347 276.281 108.025 275.582 109.024C274.883 110.022 274.726 111.292 274.755 112.555C274.783 113.661 274.969 114.838 275.71 115.844C276.602 117.043 278.185 117.813 279.711 118.02C281.237 118.234 282.714 117.949 284.026 117.478C284.368 116.044 284.012 114.253 283.684 112.719C283.448 111.613 283.056 110.486 282.286 109.509C281.516 108.531 280.325 107.718 279.055 107.547Z" fill="#455A64"/>
<path d="M265.661 118.541C265.719 118.548 265.64 119.255 265.562 120.382C265.483 121.516 265.412 123.079 265.49 124.805C265.576 126.532 265.811 128.08 266.039 129.186C266.268 130.299 266.453 130.977 266.396 130.991C266.353 131.005 266.075 130.349 265.783 129.243C265.483 128.137 265.205 126.567 265.119 124.82C265.034 123.072 265.148 121.488 265.298 120.353C265.448 119.226 265.619 118.534 265.661 118.541Z" fill="#263238"/>
<path d="M269.028 137.141C268.928 137.184 268.3 135.807 267.045 134.458C266.425 133.781 265.79 133.246 265.298 132.91C264.806 132.568 264.456 132.439 264.471 132.382C264.478 132.339 264.877 132.382 265.433 132.682C265.983 132.974 266.674 133.502 267.316 134.202C268.629 135.614 269.121 137.12 269.028 137.141Z" fill="#263238"/>
<path d="M281.801 124.377C281.894 124.348 282.322 125.461 282.4 126.924C282.486 128.387 282.179 129.542 282.086 129.521C281.979 129.507 282.108 128.358 282.029 126.945C281.951 125.54 281.694 124.413 281.801 124.377Z" fill="#263238"/>
<path d="M286.18 121.053C286.266 121.11 285.567 122.265 284.618 123.628C283.67 124.991 282.835 126.047 282.75 125.99C282.664 125.933 283.363 124.777 284.319 123.414C285.26 122.051 286.094 120.995 286.18 121.053Z" fill="#263238"/>
<path d="M283.869 120.788C283.769 120.781 283.734 119.789 283.791 118.562C283.848 117.335 283.983 116.351 284.083 116.351C284.183 116.358 284.219 117.349 284.162 118.577C284.097 119.804 283.969 120.795 283.869 120.788Z" fill="#263238"/>
<path d="M264.934 182.081C264.884 182.081 264.77 181.19 264.692 179.734C264.613 178.279 264.578 176.267 264.677 174.048C264.735 172.935 264.784 171.886 264.927 170.916C265.07 169.953 265.355 169.089 265.769 168.462C266.175 167.827 266.653 167.434 267.017 167.234C267.38 167.028 267.616 166.992 267.616 167.013C267.659 167.07 266.71 167.349 265.99 168.597C265.633 169.204 265.384 170.024 265.262 170.966C265.141 171.9 265.105 172.963 265.048 174.069C264.948 176.281 264.941 178.279 264.956 179.734C264.97 181.183 264.984 182.081 264.934 182.081Z" fill="#263238"/>
<path d="M243.118 292.689C242.911 292.689 242.697 292.661 242.483 292.596C241.549 292.318 240.95 291.512 240.95 290.535V265.435H241.513V290.535C241.513 291.412 242.126 291.904 242.647 292.061C243.175 292.218 243.952 292.14 244.43 291.405L261.468 265.278L261.939 265.585L244.901 291.712C244.487 292.34 243.831 292.689 243.118 292.689Z" fill="#263238"/>
<path d="M310.792 292.689C310.086 292.689 309.43 292.34 309.016 291.712L291.978 265.585L292.449 265.278L309.487 291.405C309.965 292.14 310.749 292.218 311.27 292.061C311.79 291.904 312.404 291.412 312.404 290.535V265.435H312.967V290.535C312.967 291.512 312.361 292.318 311.434 292.596C311.213 292.653 310.999 292.689 310.792 292.689Z" fill="#263238"/>
<path d="M323.85 200.054H236.35V268.039H323.85V200.054Z" fill="#AE7461"/>
<path d="M297.627 230.733C297.627 230.733 297.619 230.583 297.619 230.297C297.619 230.005 297.612 229.584 297.612 229.027C297.605 227.907 297.605 226.266 297.591 224.14C297.584 219.888 297.569 213.71 297.548 205.954L297.619 206.047C284.026 206.061 263.772 206.075 241.192 206.097H241.185L241.299 205.954C241.299 214.566 241.299 222.92 241.292 230.733L241.185 230.59C257.424 230.618 271.517 230.64 281.558 230.654C286.579 230.668 290.587 230.683 293.347 230.697C294.724 230.704 295.787 230.711 296.514 230.718C296.871 230.726 297.142 230.726 297.334 230.726C297.527 230.726 297.627 230.733 297.627 230.733C297.627 230.733 297.541 230.74 297.356 230.74C297.17 230.74 296.899 230.747 296.55 230.747C295.829 230.754 294.774 230.754 293.404 230.768C290.652 230.775 286.651 230.79 281.644 230.811C271.588 230.825 257.467 230.847 241.199 230.875H241.092V230.733C241.092 222.92 241.092 214.566 241.085 205.954V205.812H241.199H241.206C263.786 205.833 284.04 205.847 297.634 205.861H297.705V205.961C297.691 213.738 297.676 219.938 297.662 224.204C297.655 226.323 297.648 227.957 297.641 229.07C297.641 229.613 297.634 230.033 297.634 230.319C297.627 230.597 297.627 230.733 297.627 230.733Z" fill="#263238"/>
<path d="M297.627 260.113C297.627 260.113 297.619 259.963 297.619 259.678C297.619 259.385 297.612 258.964 297.612 258.408C297.605 257.287 297.605 255.647 297.591 253.52C297.584 249.268 297.569 243.09 297.548 235.334L297.619 235.434C284.026 235.448 263.772 235.463 241.192 235.484H241.185L241.299 235.341C241.299 243.953 241.299 252.308 241.292 260.12L241.185 259.977C257.424 260.006 271.517 260.027 281.558 260.041C286.579 260.056 290.587 260.07 293.347 260.084C294.724 260.091 295.787 260.099 296.514 260.106C296.871 260.113 297.142 260.113 297.334 260.113C297.527 260.106 297.627 260.113 297.627 260.113C297.627 260.113 297.541 260.12 297.356 260.12C297.17 260.12 296.899 260.127 296.55 260.127C295.829 260.134 294.774 260.134 293.404 260.148C290.652 260.156 286.651 260.17 281.644 260.191C271.588 260.206 257.467 260.227 241.199 260.255H241.092V260.113C241.092 252.3 241.092 243.946 241.085 235.334V235.192H241.199H241.206C263.786 235.213 284.04 235.227 297.634 235.242H297.705V235.334C297.691 243.111 297.676 249.311 297.662 253.577C297.655 255.696 297.648 257.33 297.641 258.443C297.641 258.986 297.634 259.406 297.634 259.692C297.627 259.977 297.627 260.113 297.627 260.113Z" fill="#263238"/>
<path d="M257.845 205.812L259.678 208.366H280.688L282.778 205.812H257.845Z" fill="#263238"/>
<path d="M257.923 235.192L259.756 237.746H280.767L282.856 235.192H257.923Z" fill="#263238"/>
<path d="M323.857 200.054H303.696V268.039H323.857V200.054Z" fill="#6F4439"/>
<path d="M148.187 83.9436C150.02 72.7441 142.43 62.1785 131.235 60.3447C120.04 58.5108 109.479 66.1031 107.645 77.3026C105.812 88.5021 113.402 99.0677 124.597 100.902C135.792 102.735 146.354 95.1431 148.187 83.9436Z" fill="white"/>
<path d="M148.464 80.6277C148.457 80.6277 148.442 80.5136 148.428 80.2924C148.414 80.0569 148.385 79.7287 148.357 79.3149C148.342 79.1009 148.328 78.8583 148.314 78.5943C148.285 78.3304 148.228 78.045 148.178 77.7382C148.079 77.1175 147.986 76.404 147.743 75.6192C147.38 74.0353 146.631 72.1661 145.461 70.1827C144.277 68.2064 142.58 66.1445 140.262 64.3965C137.951 62.6628 135.042 61.1931 131.682 60.5938C128.345 60.023 124.579 60.1229 120.992 61.4856C120.079 61.7781 119.223 62.2276 118.339 62.6557C117.504 63.1622 116.62 63.626 115.843 64.261C115.015 64.8317 114.295 65.538 113.532 66.223C112.847 66.9792 112.127 67.7212 111.542 68.5845C110.33 70.2683 109.274 72.1375 108.632 74.1923C107.969 76.2328 107.612 78.4017 107.584 80.6134C107.612 82.8252 107.969 84.9941 108.632 87.0346C109.274 89.0893 110.33 90.9586 111.542 92.6424C112.134 93.5056 112.854 94.2476 113.532 95.0039C114.288 95.6888 115.015 96.4023 115.843 96.9659C116.62 97.6009 117.504 98.0646 118.339 98.5712C119.223 98.9921 120.079 99.4488 120.992 99.7413C124.579 101.104 128.345 101.211 131.69 100.633C135.049 100.041 137.966 98.5641 140.269 96.8304C142.587 95.0824 144.284 93.0205 145.468 91.0442C146.638 89.0608 147.387 87.1915 147.75 85.6076C147.986 84.83 148.086 84.1094 148.186 83.4887C148.235 83.1819 148.293 82.8965 148.321 82.6325C148.335 82.3685 148.357 82.1331 148.364 81.9119C148.392 81.4981 148.414 81.1771 148.435 80.9345C148.442 80.7419 148.457 80.6277 148.464 80.6277C148.471 80.6277 148.471 80.7419 148.471 80.963C148.464 81.2056 148.457 81.5267 148.442 81.9405C148.435 82.1545 148.428 82.3971 148.414 82.6611C148.392 82.925 148.342 83.2104 148.3 83.5243C148.214 84.1451 148.128 84.8728 147.9 85.6647C147.558 87.27 146.823 89.1607 145.661 91.1798C144.484 93.1846 142.78 95.2893 140.44 97.0729C138.108 98.8423 135.163 100.355 131.747 100.976C128.359 101.575 124.522 101.482 120.863 100.098C119.936 99.7983 119.059 99.3417 118.16 98.9137C117.305 98.4 116.406 97.9291 115.614 97.287C114.773 96.7091 114.031 95.9885 113.261 95.2893C112.562 94.5187 111.827 93.7625 111.228 92.8849C109.994 91.1726 108.91 89.2677 108.261 87.1701C107.584 85.0868 107.22 82.8751 107.192 80.6206C107.22 78.366 107.584 76.1543 108.261 74.071C108.918 71.9734 109.994 70.0685 111.228 68.3562C111.834 67.4787 112.562 66.7224 113.261 65.9519C114.031 65.2527 114.773 64.5321 115.614 63.9542C116.406 63.3121 117.305 62.834 118.16 62.3275C119.059 61.8994 119.936 61.4428 120.863 61.1431C124.522 59.7662 128.359 59.6734 131.747 60.2656C135.163 60.8863 138.108 62.3988 140.44 64.1682C142.78 65.959 144.484 68.0566 145.661 70.0614C146.83 72.0733 147.558 73.9711 147.9 75.5764C148.128 76.3684 148.214 77.0889 148.3 77.7168C148.342 78.0307 148.392 78.3161 148.414 78.5801C148.421 78.8441 148.435 79.0866 148.442 79.3007C148.457 79.7145 148.464 80.0427 148.471 80.2781C148.471 80.5207 148.464 80.6277 148.464 80.6277Z" fill="#263238"/>
<path d="M121.84 82.5256C123.172 82.5256 124.251 81.446 124.251 80.1141C124.251 78.7823 123.172 77.7026 121.84 77.7026C120.509 77.7026 119.43 78.7823 119.43 80.1141C119.43 81.446 120.509 82.5256 121.84 82.5256Z" fill="#263238"/>
<path d="M128.288 82.5256C129.619 82.5256 130.698 81.446 130.698 80.1141C130.698 78.7823 129.619 77.7026 128.288 77.7026C126.956 77.7026 125.877 78.7823 125.877 80.1141C125.877 81.446 126.956 82.5256 128.288 82.5256Z" fill="#263238"/>
<path d="M137.145 80.1141C137.145 81.4483 136.061 82.5256 134.735 82.5256C133.401 82.5256 132.324 81.4412 132.324 80.1141C132.324 78.78 133.408 77.7026 134.735 77.7026C136.061 77.7026 137.145 78.78 137.145 80.1141Z" fill="#263238"/>
<path d="M157.999 85.0942C157.999 86.6781 156.715 87.9623 155.132 87.9623C153.549 87.9623 152.265 86.6781 152.265 85.0942C152.265 83.5103 153.549 82.2261 155.132 82.2261C156.715 82.2261 157.999 83.5103 157.999 85.0942Z" fill="white"/>
<path d="M157.999 85.0939C157.963 85.0939 157.956 84.8371 157.835 84.409C157.707 83.9881 157.414 83.3816 156.78 82.925C156.166 82.4613 155.175 82.2116 154.219 82.5754C153.271 82.9108 152.458 83.9167 152.465 85.0939C152.451 86.2712 153.271 87.2843 154.219 87.6125C155.175 87.9763 156.173 87.7195 156.78 87.2629C157.414 86.7991 157.707 86.1927 157.835 85.7789C157.956 85.3508 157.963 85.0939 157.999 85.0939C158.021 85.0939 158.07 85.3508 157.985 85.8145C157.899 86.2712 157.628 86.9489 156.951 87.4912C156.302 88.0334 155.182 88.3616 154.084 87.9692C152.993 87.6125 152.037 86.4567 152.051 85.0939C152.037 83.7384 152.993 82.5754 154.084 82.2187C155.182 81.8263 156.295 82.1545 156.951 82.6967C157.628 83.239 157.899 83.9167 157.985 84.3734C158.07 84.8371 158.021 85.0939 157.999 85.0939Z" fill="#263238"/>
<path d="M211.93 229.077L230.609 292.689H225.36L199.606 228.635L211.93 229.077Z" fill="#6F4439"/>
<path d="M166.101 229.077L184.779 292.083H179.53L153.777 228.635L166.101 229.077Z" fill="#6F4439"/>
<path d="M109.203 229.077L92.272 292.083H97.521L121.534 228.635L109.203 229.077Z" fill="#AE7461"/>
<path d="M164.04 229.077L147.993 292.083H153.242L176.371 228.635L164.04 229.077Z" fill="#AE7461"/>
<path d="M99.0828 201.495C99.0828 201.495 97.6208 182.317 100.545 176.845C103.469 171.373 131.533 160.257 131.533 160.257C131.533 160.257 150.803 129.842 163.676 123.407C176.549 116.972 226.836 117.849 234.146 127.795C241.456 137.74 233.269 163.767 229.467 179.563L215.724 218.169L211.923 229.084H107.27L99.0828 201.495Z" fill="#1E7068"/>
<path d="M229.446 127.481C229.453 127.481 229.482 127.545 229.524 127.681C229.567 127.816 229.639 128.016 229.717 128.28C229.874 128.808 230.081 129.6 230.288 130.634C230.694 132.696 231.122 135.757 230.937 139.574C230.844 141.479 230.551 143.555 230.216 145.781C229.874 148.007 229.475 150.383 229.018 152.887C228.112 157.896 227.028 163.425 225.816 169.268L225.794 169.354L225.716 169.397C224.147 170.189 222.492 171.023 220.795 171.844C208.913 177.644 197.773 182.053 189.615 184.943C185.535 186.391 182.205 187.476 179.894 188.196C178.753 188.546 177.861 188.817 177.227 189.01C176.934 189.095 176.706 189.159 176.528 189.209C176.371 189.252 176.285 189.274 176.285 189.266C176.285 189.259 176.364 189.231 176.513 189.174C176.685 189.117 176.913 189.038 177.198 188.938C177.826 188.731 178.71 188.439 179.844 188.061C182.14 187.29 185.457 186.17 189.522 184.693C197.652 181.74 208.764 177.302 220.624 171.501C222.314 170.681 223.976 169.846 225.538 169.054L225.438 169.183C226.657 163.347 227.749 157.824 228.676 152.823C229.139 150.326 229.553 147.95 229.91 145.731C230.259 143.512 230.566 141.45 230.673 139.56C230.887 135.771 230.501 132.725 230.138 130.656C229.952 129.621 229.767 128.829 229.631 128.294C229.567 128.045 229.517 127.845 229.475 127.688C229.453 127.552 229.439 127.481 229.446 127.481Z" fill="#263238"/>
<path d="M112.59 217.17C112.69 217.155 113.218 219.802 113.767 223.091C114.316 226.38 114.68 229.063 114.58 229.077C114.48 229.092 113.953 226.445 113.403 223.156C112.854 219.867 112.491 217.184 112.59 217.17Z" fill="#263238"/>
<path d="M166.771 228.635C166.671 228.621 167.841 221.294 169.382 212.268C170.922 203.243 172.256 195.944 172.356 195.966C172.455 195.98 171.286 203.307 169.745 212.333C168.205 221.351 166.878 228.649 166.771 228.635Z" fill="#263238"/>
<path d="M40.7086 233.879L26.3237 252.094C26.3237 252.094 2.98825 243.582 0 246.686L34.2971 275.859L57.875 248.398L40.7086 233.879Z" fill="#263238"/>
<path d="M38.191 259.628C38.6973 260.377 38.5262 261.511 37.7987 262.053C37.0713 262.596 35.9159 262.424 35.3953 261.69C34.8746 260.955 35.0387 259.585 35.8232 259.128C36.6006 258.672 37.9485 258.943 38.2837 259.785" fill="#E0E0E0"/>
<path d="M34.2971 275.866L36.565 273.005L2.83135 246.101C2.83135 246.101 0.741713 245.466 0 246.693L34.2971 275.866Z" fill="#455A64"/>
<path d="M25.9172 251.451C25.7817 251.623 26.5519 252.414 26.9228 253.649C27.3221 254.876 27.1296 255.967 27.3364 256.032C27.5218 256.132 28.1209 254.919 27.6502 253.42C27.1938 251.922 26.0099 251.266 25.9172 251.451Z" fill="white"/>
<path d="M21.0531 249.875C20.8748 250.003 21.3598 250.909 21.3241 252.101C21.3241 253.292 20.8178 254.184 20.9889 254.319C21.1244 254.476 22.073 253.599 22.0872 252.115C22.1158 250.631 21.1958 249.718 21.0531 249.875Z" fill="white"/>
<path d="M15.3477 252.443C15.4689 252.607 16.4175 251.972 16.7669 250.688C17.1235 249.404 16.6457 248.376 16.4531 248.455C16.2392 248.512 16.3319 249.439 16.0252 250.488C15.7471 251.544 15.1979 252.286 15.3477 252.443Z" fill="white"/>
<path d="M29.6543 247.663C29.5972 247.877 30.56 248.298 31.4515 249.168C32.3644 250.017 32.8279 250.966 33.0348 250.895C33.2345 250.859 33.0419 249.625 31.9793 248.612C30.9237 247.592 29.6828 247.463 29.6543 247.663Z" fill="white"/>
<path d="M71.9747 202.936C71.9747 204.584 64.6003 280.432 64.6003 280.432L89.5048 283.322C89.5048 283.322 95.7023 245.073 96.6651 238.017C97.6279 230.968 100.852 218.333 100.852 218.333L153.984 213.074C153.984 213.074 127.924 176.602 125.385 176.445C122.868 176.296 71.9747 202.936 71.9747 202.936Z" fill="#263238"/>
<path d="M28.9268 244.845C28.9268 244.845 73.5294 184.365 76.0968 181.197C78.6714 178.029 81.6383 174.662 90.9382 174.662C100.238 174.662 125.399 176.445 125.399 176.445L138.693 170.388L186.947 177.83C186.947 177.83 188.73 200.796 185.564 206.14C182.397 211.483 163.598 212.868 159.639 213.067C155.681 213.267 94.3829 204.941 94.3829 204.941C94.3829 204.941 82.3657 221.622 76.6032 228.036C72.4881 232.609 50.5434 260.776 50.5434 260.776L28.9268 244.845Z" fill="#263238"/>
<path d="M50.6076 261.276L28.4204 244.916L28.6344 244.631C29.0837 244.024 73.2726 184.108 75.8187 180.969C78.2293 178.001 81.2318 174.305 90.9382 174.305C99.8673 174.305 123.666 175.968 125.335 176.089L138.643 170.024L138.75 170.039L187.282 177.523L187.304 177.801C187.375 178.743 189.058 200.939 185.87 206.325C182.433 212.126 161.979 213.31 159.654 213.431C155.795 213.66 99.1256 205.954 94.5398 205.333C93.2418 207.131 82.2588 222.278 76.8599 228.285C72.8019 232.795 51.0426 260.726 50.8216 261.012L50.6076 261.276ZM29.4189 244.766L50.4721 260.291C52.7543 257.366 72.4739 232.088 76.3322 227.8C82.0234 221.472 93.9693 204.905 94.0905 204.734L94.2189 204.563L94.4328 204.592C95.0462 204.677 155.738 212.91 159.625 212.718C160.538 212.675 181.955 211.541 185.264 205.961C188.152 201.088 186.812 180.783 186.619 178.144L138.75 170.759L125.471 176.809L125.378 176.802C125.128 176.781 100.124 175.019 90.9454 175.019C81.5812 175.019 78.6928 178.572 76.3821 181.418C73.9288 184.429 32.7637 240.236 29.4189 244.766Z" fill="#455A64"/>
<path d="M89.4476 196.929C89.5332 196.872 90.8241 198.713 92.3289 201.046C93.8337 203.372 94.9819 205.305 94.8963 205.362C94.8108 205.419 93.5199 203.578 92.0151 201.245C90.5103 198.92 89.362 196.986 89.4476 196.929Z" fill="#455A64"/>
<path d="M66.6116 265.435L67.8811 288.616C67.8811 288.616 44.7596 297.691 44.5742 302L89.5833 301.151L89.0841 264.957L66.6116 265.435Z" fill="#263238"/>
<path d="M81.7666 286.404C82.6438 286.625 83.2643 287.595 83.0788 288.48C82.8934 289.365 81.9164 290.007 81.032 289.8C80.1548 289.593 79.3703 288.451 79.6556 287.595C79.9408 286.739 81.1318 286.047 81.9306 286.461" fill="#E0E0E0"/>
<path d="M89.5903 301.151L89.3978 297.505L46.3143 299.681C46.3143 299.681 44.3245 300.595 44.5812 302L89.5903 301.151Z" fill="#455A64"/>
<path d="M67.1536 288.401C67.1679 288.623 68.2662 288.701 69.3574 289.386C70.4699 290.042 71.0476 290.984 71.2473 290.899C71.447 290.849 71.0975 289.543 69.7568 288.737C68.4231 287.916 67.0966 288.202 67.1536 288.401Z" fill="white"/>
<path d="M62.4679 290.442C62.4251 290.656 63.3808 291.013 64.1439 291.926C64.9356 292.818 65.1424 293.824 65.3635 293.81C65.5703 293.838 65.6987 292.547 64.7287 291.427C63.7588 290.299 62.4679 290.235 62.4679 290.442Z" fill="white"/>
<path d="M59.8934 296.15C60.0931 296.192 60.3784 295.087 59.7935 293.895C59.2159 292.697 58.1675 292.24 58.0819 292.425C57.9607 292.611 58.6382 293.239 59.1089 294.23C59.5939 295.201 59.6723 296.128 59.8934 296.15Z" fill="white"/>
<path d="M67.446 283.086C67.5387 283.286 68.5443 282.965 69.7852 283.022C71.0333 283.058 72.0032 283.457 72.1173 283.265C72.2386 283.101 71.2829 282.309 69.8137 282.259C68.3517 282.194 67.339 282.915 67.446 283.086Z" fill="white"/>
<path d="M157.578 118.078L159.14 132.539L140.99 168.962C140.99 168.962 130.256 172.536 126.455 176.446L135.149 176.824C147.615 177.366 159.682 181.704 169.645 189.481C173.939 192.834 177.405 196.458 178.047 199.747C179.937 209.45 182.832 207.959 182.832 207.959L193.837 193.797L201.546 178.472L217.015 118.441L202.088 110.244L198.736 105.364L176.649 108.439L172.248 112.784L157.578 118.078Z" fill="#455A64"/>
<path d="M120.913 156.876L130.185 152.994L144.755 132.547C144.755 132.547 151.509 119.027 157.571 118.078C163.633 117.129 159.133 132.54 159.133 132.54L149.79 159.08L134.721 169.632L124.33 168.726L117.604 162.997L120.913 156.876Z" fill="#455A64"/>
<path d="M159.026 123.107C159.04 123.115 158.983 123.279 158.869 123.585C158.734 123.928 158.563 124.37 158.349 124.92C157.871 126.118 157.215 127.788 156.402 129.828C154.768 133.973 152.586 139.731 150.183 146.095C147.779 152.459 145.561 158.21 143.857 162.333C143.008 164.395 142.309 166.058 141.803 167.199C141.56 167.741 141.368 168.177 141.218 168.512C141.082 168.812 141.004 168.961 140.99 168.961C140.975 168.954 141.032 168.79 141.147 168.483C141.282 168.141 141.453 167.699 141.667 167.149C142.145 165.951 142.801 164.281 143.614 162.241C145.247 158.095 147.43 152.338 149.833 145.967C152.229 139.603 154.455 133.852 156.152 129.728C157.001 127.666 157.7 126.004 158.206 124.863C158.448 124.32 158.641 123.885 158.791 123.55C158.933 123.257 159.012 123.107 159.026 123.107Z" fill="#263238"/>
<path d="M177.219 122.508C177.198 122.523 176.998 122.166 176.663 121.524C176.307 120.81 175.836 119.89 175.272 118.784H175.515C175.03 119.854 174.459 121.124 173.711 122.48C172.962 123.821 171.999 125.255 170.687 126.475L170.337 126.796L170.373 126.325C170.373 126.304 170.38 126.275 170.38 126.254C170.651 122.573 171.079 119.255 171.471 116.865C171.664 115.673 171.842 114.71 171.985 114.047C172.12 113.383 172.213 113.019 172.234 113.026C172.263 113.034 172.22 113.405 172.127 114.075C172.027 114.81 171.892 115.766 171.735 116.908C171.414 119.298 171.022 122.608 170.751 126.283C170.751 126.311 170.744 126.332 170.744 126.354L170.43 126.204C171.706 125.027 172.648 123.636 173.411 122.316C174.167 120.996 174.759 119.74 175.272 118.677L175.401 118.42L175.522 118.677C176.043 119.811 176.471 120.746 176.806 121.474C177.091 122.123 177.241 122.501 177.219 122.508Z" fill="#263238"/>
<path d="M200.648 111.364C200.655 111.371 200.583 111.471 200.441 111.657C200.27 111.871 200.056 112.128 199.799 112.442C199.228 113.112 198.394 114.082 197.324 115.238C195.192 117.564 192.111 120.668 188.474 123.828C186.826 125.269 185.2 126.597 183.688 127.774L183.41 127.988L183.403 127.638C183.36 124.906 182.839 122.558 182.29 120.81L182.469 120.875C181.349 121.517 180.436 122.045 179.758 122.43C179.124 122.787 178.774 122.972 178.76 122.951C178.746 122.929 179.074 122.708 179.694 122.316C180.358 121.902 181.249 121.345 182.347 120.661L182.476 120.582L182.526 120.725C183.125 122.473 183.681 124.849 183.752 127.624L183.474 127.488C184.972 126.304 186.584 124.97 188.224 123.536C191.847 120.382 194.949 117.322 197.124 115.046C198.216 113.911 199.086 112.977 199.685 112.327C199.963 112.035 200.191 111.785 200.384 111.585C200.548 111.443 200.64 111.357 200.648 111.364Z" fill="#263238"/>
<path d="M199.307 107.254L200.812 76.5682C201.767 66.9579 196.975 58.3964 187.347 57.7115L186.455 57.6972C177.462 57.5831 169.888 64.3895 169.053 73.3434C168.276 81.6766 167.52 90.8873 167.513 95.3678C167.506 104.636 176.749 106.191 176.749 106.191C176.77 106.191 176.499 111.82 176.349 114.531L178.289 121.595L199.307 107.254Z" fill="#FFBF9D"/>
<path d="M176.763 106.213C176.763 106.213 182.597 106.634 188.866 102.802C188.866 102.802 185.878 109.73 176.649 108.774L176.763 106.213Z" fill="#FF9A6C"/>
<path d="M171.806 81.8123C171.771 82.5114 172.334 83.1179 173.062 83.1607C173.789 83.2106 174.409 82.6827 174.438 81.9835C174.474 81.2843 173.91 80.6779 173.183 80.6279C172.462 80.5851 171.842 81.1131 171.806 81.8123Z" fill="#263238"/>
<path d="M170.979 77.1462C171.143 77.3174 172.149 76.5897 173.575 76.6111C174.994 76.6111 176.028 77.3603 176.185 77.189C176.264 77.1105 176.1 76.7966 175.65 76.4613C175.208 76.126 174.445 75.7978 173.561 75.7906C172.676 75.7835 171.927 76.0974 171.492 76.4256C171.05 76.7538 170.9 77.0677 170.979 77.1462Z" fill="#263238"/>
<path d="M184.216 82.0833C184.18 82.7825 184.743 83.3889 185.471 83.4317C186.198 83.4817 186.819 82.9537 186.847 82.2545C186.883 81.5553 186.32 80.9489 185.592 80.9061C184.872 80.8562 184.251 81.3841 184.216 82.0833Z" fill="#263238"/>
<path d="M184.922 77.6526C185.086 77.8238 186.099 77.0961 187.518 77.1246C188.937 77.1246 189.971 77.8737 190.128 77.7025C190.206 77.624 190.042 77.3101 189.593 76.9748C189.151 76.6394 188.388 76.3113 187.503 76.297C186.619 76.2899 185.87 76.6109 185.435 76.932C185 77.2673 184.843 77.5741 184.922 77.6526Z" fill="#263238"/>
<path d="M179.68 88.5259C179.687 88.4475 178.803 88.2834 177.376 88.0765C177.013 88.0336 176.67 87.9552 176.613 87.7055C176.528 87.4415 176.685 87.0491 176.87 86.6281C177.219 85.7506 177.59 84.8374 177.983 83.8742C179.523 79.9502 180.65 76.7253 180.493 76.6683C180.336 76.6112 178.952 79.7361 177.412 83.6601C177.041 84.6305 176.685 85.5508 176.349 86.4284C176.207 86.8422 175.964 87.3059 176.143 87.8553C176.235 88.1264 176.499 88.3262 176.734 88.3975C176.97 88.4689 177.17 88.476 177.348 88.4903C178.774 88.5901 179.673 88.6044 179.68 88.5259Z" fill="#263238"/>
<path d="M184.522 73.1937C184.708 73.5575 186.098 73.1937 187.774 73.1794C189.458 73.1294 190.855 73.4434 191.027 73.0724C191.105 72.894 190.827 72.5658 190.235 72.259C189.65 71.9594 188.752 71.7168 187.746 71.7311C186.74 71.7525 185.849 72.0236 185.278 72.3518C184.708 72.68 184.437 73.0224 184.522 73.1937Z" fill="#263238"/>
<path d="M170.972 72.9579C171.257 73.2861 172.427 72.9865 173.817 73.0079C175.208 72.9865 176.385 73.3004 176.663 72.9651C176.784 72.801 176.613 72.4728 176.107 72.1517C175.608 71.8307 174.766 71.5596 173.81 71.5596C172.855 71.5596 172.013 71.8307 171.521 72.1446C171.015 72.4657 170.843 72.7939 170.972 72.9579Z" fill="#263238"/>
<path d="M199.984 83.1033C200.141 83.0391 206.367 81.3054 206.089 87.6338C205.804 93.9621 199.514 92.3711 199.506 92.1928C199.499 92.0073 199.984 83.1033 199.984 83.1033Z" fill="#FFBF9D"/>
<path d="M201.546 89.8813C201.575 89.8599 201.653 89.9598 201.839 90.0597C202.017 90.1524 202.323 90.2237 202.659 90.1167C203.336 89.9027 203.95 88.8682 204.028 87.7266C204.071 87.1487 203.971 86.5994 203.793 86.1356C203.621 85.6648 203.336 85.3294 203.001 85.2509C202.673 85.1582 202.423 85.3508 202.338 85.5221C202.245 85.6933 202.281 85.8217 202.245 85.836C202.224 85.8502 202.117 85.7218 202.174 85.465C202.202 85.3437 202.288 85.1939 202.438 85.0797C202.594 84.9656 202.823 84.9085 203.051 84.9442C203.536 85.0012 203.957 85.4721 204.156 85.9787C204.385 86.4924 204.506 87.1131 204.456 87.7623C204.356 89.0394 203.65 90.2023 202.723 90.4235C202.274 90.5163 201.91 90.3664 201.724 90.2095C201.546 90.0311 201.525 89.8884 201.546 89.8813Z" fill="#FF9A6C"/>
<path d="M156.751 64.0114C156.865 63.6404 157.15 63.3479 157.493 63.1624C158.234 62.7629 159.069 62.8556 159.875 62.877C161.886 62.9341 163.897 62.506 165.73 61.6713C165.117 61.3288 164.553 60.915 164.075 60.4013C163.098 59.3383 162.578 57.7473 163.106 56.3988C163.205 56.1491 163.362 55.8851 163.626 55.8138C164.04 55.7068 164.382 56.1277 164.66 56.4559C165.559 57.5475 166.408 58.0398 167.82 57.9613C168.697 57.9114 169.553 57.7544 170.259 57.3549C170.287 57.3263 170.316 57.2978 170.344 57.2692C170.687 56.9411 171.022 56.6343 171.35 56.3346C173.832 54.0729 175.95 52.5247 178.097 51.7685C181.242 50.6555 186.427 50.3772 189.615 51.3618C192.803 52.3464 195.584 55.0861 195.884 58.4036C197.752 56.9553 200.469 57.0837 202.63 58.0612L202.687 58.0398C205.098 59.0172 206.382 61.6713 206.995 64.1969C207.031 64.3325 207.059 64.4752 207.088 64.6179C207.858 65.9663 208.935 67.1435 210.247 67.9783C210.475 68.1281 210.739 68.3065 210.761 68.5776C210.775 68.8487 210.539 69.0627 210.311 69.2125C209.705 69.6049 209.006 69.8547 208.293 69.9545C208.493 70.561 208.728 71.146 209.035 71.7097C209.291 72.1877 209.598 72.7656 209.334 73.2436C209.134 73.6146 208.642 73.7501 208.229 73.6717C207.815 73.5932 207.459 73.3435 207.109 73.108C207.352 73.7715 207.601 74.4422 207.844 75.1057C206.952 75.2199 206.032 75.1129 205.183 74.8132C204.563 77.1319 203.985 81.4412 203.315 82.9966C201.632 82.9538 201.232 82.754 200.377 82.9966C199.264 83.3105 199.599 85.2725 198.194 84.6589C197.481 84.345 196.483 81.5483 196.276 80.7991C194.878 75.8192 194.564 70.5396 195.37 65.4312C194.4 64.3039 193.216 63.3693 191.897 62.6844L192.004 62.7914C189.458 61.7783 186.569 60.7723 184.059 61.8782C182.112 62.7415 180.907 64.6678 179.416 66.1875C176.592 69.0627 173.468 70.5253 169.439 70.5253C168.954 73.3078 168.654 77.8739 168.405 80.4709L166.4 75.1557V75.1771C166.236 74.8631 166.101 74.5492 165.965 74.2353L165.923 74.1425V74.1283C165.716 73.6217 165.523 73.1152 165.252 72.6157C165.245 72.6229 165.238 72.63 165.224 72.6371C163.755 73.8215 161.758 71.8309 162.934 70.3541C163.17 70.0616 163.441 69.8047 163.755 69.5978C163.084 70.1757 162.107 70.4254 161.273 70.1258C160.438 69.8261 159.818 68.9414 159.932 68.0639C160.01 67.4646 160.46 66.9437 161.016 66.7297C159.868 66.7654 158.712 66.4729 157.742 65.8593C157.108 65.4598 156.494 64.8176 156.751 64.0114Z" fill="#263238"/>
<path d="M192.924 59.3384C192.903 59.3598 193.302 59.6024 193.815 60.2302C194.322 60.858 194.885 61.9282 195.106 63.3694C195.22 64.0829 195.277 64.882 195.242 65.731C195.206 66.5871 195.099 67.4932 194.992 68.4564C194.885 69.4196 194.778 70.4327 194.792 71.4886C194.8 72.0165 194.842 72.5588 194.935 73.101C195.028 73.6361 195.142 74.214 195.52 74.6849C195.819 75.0701 196.347 75.2557 196.811 75.1772C197.274 75.113 197.702 74.8847 198.016 74.5636C198.644 73.8929 198.829 73.0154 199.007 72.2449L198.815 72.2591C199.1 72.9726 199.4 73.6789 199.856 74.2497C200.305 74.8276 200.947 75.22 201.618 75.3056C201.953 75.3484 202.288 75.3127 202.58 75.1772C202.88 75.0487 203.101 74.8133 203.258 74.5636C203.408 74.3067 203.493 74.0285 203.493 73.7503C203.486 73.472 203.393 73.208 203.229 73.0154L203.13 73.101C203.807 73.9429 204.542 74.4138 205.055 74.6777C205.312 74.8133 205.519 74.8918 205.661 74.9417C205.804 74.9917 205.875 75.0131 205.882 75.0059C205.882 74.9988 205.811 74.9703 205.676 74.9061C205.54 74.8418 205.34 74.7491 205.091 74.6135C204.599 74.3353 203.886 73.8501 203.237 73.0154L203.137 73.101C203.436 73.4435 203.429 74.0285 203.137 74.478C202.994 74.6992 202.787 74.9061 202.523 75.0202C202.26 75.1344 201.953 75.17 201.653 75.1272C201.04 75.0416 200.441 74.6706 200.02 74.1212C199.585 73.5719 199.3 72.887 199.015 72.1735L198.893 71.8739L198.815 72.1949C198.637 72.9654 198.437 73.8073 197.866 74.4066C197.581 74.6992 197.196 74.9061 196.789 74.956C196.383 75.0202 195.955 74.8632 195.691 74.5351C195.363 74.1284 195.242 73.579 195.149 73.0511C195.056 72.5231 195.021 71.9951 195.006 71.4743C194.985 70.4327 195.092 69.4267 195.192 68.4635C195.292 67.5003 195.392 66.5871 195.42 65.7238C195.449 64.8606 195.384 64.0543 195.256 63.3266C195.014 61.8712 194.422 60.7796 193.88 60.1589C193.338 59.5524 192.924 59.3384 192.924 59.3384Z" fill="#455A64"/>
<path d="M163.883 67.1221C163.883 67.1221 163.904 67.1506 163.954 67.1863C164.011 67.2362 164.09 67.2933 164.175 67.3646C164.275 67.4431 164.396 67.5359 164.56 67.6357C164.717 67.7356 164.896 67.8569 165.109 67.9568C165.951 68.3991 167.313 68.87 169.046 68.8415C170.758 68.8201 172.833 68.2993 174.723 67.015C176.627 65.7665 178.339 63.8758 179.765 61.6855C180.486 60.5939 181.085 59.4666 181.734 58.4321C182.383 57.3976 183.089 56.4416 183.923 55.6996C184.751 54.9504 185.699 54.4154 186.662 54.1942C187.14 54.0729 187.618 54.0658 188.074 54.0943C188.53 54.1371 188.958 54.2513 189.351 54.3939C190.135 54.6936 190.763 55.1645 191.233 55.6425C191.704 56.1205 192.011 56.6199 192.218 57.0409C192.603 57.9113 192.603 58.4607 192.638 58.4535C192.646 58.4535 192.638 58.4179 192.638 58.3536C192.631 58.2752 192.617 58.1824 192.61 58.0683C192.574 57.8185 192.482 57.4547 192.303 57.0052C192.104 56.57 191.797 56.0492 191.326 55.5569C190.855 55.0646 190.221 54.5723 189.415 54.2513C189.008 54.0943 188.566 53.973 188.095 53.9231C187.625 53.8874 187.118 53.8945 186.626 54.0158C185.628 54.237 184.644 54.7864 183.795 55.5498C182.932 56.306 182.212 57.2763 181.556 58.318C180.899 59.3596 180.3 60.4869 179.58 61.5713C178.168 63.7403 176.485 65.6095 174.609 66.8509C172.755 68.128 170.729 68.6417 169.039 68.6917C167.335 68.7416 165.994 68.3064 165.145 67.8855C164.304 67.4574 163.904 67.1006 163.883 67.1221Z" fill="#455A64"/>
<path d="M163.22 63.0199C163.212 63.0341 163.327 63.1197 163.54 63.2624C163.754 63.4123 164.083 63.5978 164.503 63.8047C164.924 64.0116 165.445 64.2113 166.037 64.3826C166.636 64.5467 167.306 64.6751 168.019 64.7322C168.732 64.7821 169.417 64.7536 170.03 64.6822C170.644 64.5966 171.193 64.4824 171.635 64.3398C172.077 64.2042 172.434 64.0615 172.669 63.9474C172.905 63.8332 173.033 63.769 173.026 63.7547C173.012 63.719 172.484 63.9616 171.599 64.1971C171.157 64.3184 170.615 64.4182 170.016 64.4896C169.41 64.5467 168.747 64.5681 168.048 64.5253C167.349 64.4682 166.693 64.3469 166.101 64.1971C165.516 64.0401 164.995 63.8546 164.575 63.6691C163.719 63.2981 163.241 62.9842 163.22 63.0199Z" fill="#455A64"/>
<path d="M179.573 92.8564C179.659 92.6353 181.121 93.2917 182.725 92.5068C184.33 91.7292 184.872 90.0954 185.079 90.181C185.179 90.2024 185.207 90.659 184.929 91.3225C184.658 91.9789 184.03 92.8279 183.046 93.3059C182.062 93.7839 181.071 93.7269 180.45 93.5057C179.808 93.2774 179.523 92.9563 179.573 92.8564Z" fill="#263238"/>
<path d="M166.771 228.635C166.771 228.185 171.728 195.966 173.646 191.856C175.165 188.603 187.332 186.056 200.369 180.798C214.405 175.133 230.673 174.74 230.673 174.74L210.076 222.299L166.771 228.635Z" fill="#1E7068"/>
<path d="M174.067 160.307L162.178 161.192V172.564L175.615 174.17L174.067 160.307Z" fill="#FFBF9D"/>
<path d="M211.759 115.737C217.628 118.156 223.07 123.357 222.713 130.106C222.186 140.109 219.839 161.577 219.297 167.106C218.584 174.327 216.145 180.405 205.526 180.805C194.906 181.204 179.28 178.622 179.28 178.622C179.28 178.622 173.653 181.468 172.099 178.336C171.685 177.501 168.896 160.685 168.896 160.685C168.896 160.464 170.273 158.859 172.241 157.874C174.474 156.754 177.191 157.61 178.425 159.779L199.128 159.101L203.229 139.617" fill="#455A64"/>
<path d="M203.229 139.631C203.229 139.631 203.215 139.745 203.172 139.966C203.129 140.202 203.065 140.53 202.979 140.958C202.801 141.843 202.544 143.127 202.202 144.789C201.51 148.143 200.505 153.015 199.235 159.137L199.214 159.223H199.121C194.878 159.372 189.985 159.536 184.572 159.729C183.217 159.772 181.834 159.822 180.414 159.872C180.058 159.886 179.701 159.893 179.345 159.907L178.803 159.929L178.531 159.936H178.46H178.425H178.41C178.439 159.957 178.146 159.786 178.268 159.85L178.26 159.843L178.189 159.729C177.818 159.137 177.319 158.609 176.706 158.231C175.5 157.467 173.882 157.296 172.519 157.91C171.835 158.209 171.186 158.63 170.587 159.108C170.287 159.344 169.995 159.601 169.717 159.872C169.581 160.007 169.446 160.15 169.324 160.293C169.26 160.364 169.203 160.443 169.146 160.514C169.096 160.571 169.032 160.707 169.039 160.678V160.649C169.695 164.559 170.394 168.669 171.164 172.921C171.364 173.984 171.564 175.054 171.763 176.139C171.87 176.674 171.977 177.223 172.106 177.751C172.17 178.029 172.213 178.243 172.384 178.465C172.462 178.564 172.512 178.693 172.605 178.778L172.89 179.042C173.725 179.677 174.916 179.692 175.985 179.499C177.077 179.314 178.161 178.921 179.173 178.443L179.23 178.415L179.287 178.422C183.495 179.085 187.938 179.649 192.467 180.077C195.605 180.362 198.708 180.569 201.774 180.626C204.827 180.662 207.886 180.641 210.703 179.777C212.101 179.335 213.413 178.671 214.533 177.772C215.653 176.874 216.559 175.746 217.193 174.483C218.477 171.951 218.912 169.147 219.162 166.443C220.296 155.57 221.323 145.781 222.022 137.548C222.2 135.486 222.35 133.531 222.471 131.669C222.535 130.741 222.592 129.835 222.571 128.972C222.556 128.537 222.492 128.116 222.457 127.695C222.378 127.281 222.285 126.874 222.207 126.482C221.786 124.905 221.087 123.535 220.281 122.394C219.475 121.245 218.591 120.318 217.75 119.533C216.024 118.006 214.462 117.093 213.392 116.529C212.857 116.237 212.436 116.051 212.151 115.923C211.866 115.787 211.73 115.716 211.73 115.716C211.73 115.716 211.88 115.766 212.165 115.887C212.451 116.008 212.886 116.187 213.428 116.465C214.512 117.014 216.095 117.906 217.849 119.433C218.705 120.211 219.611 121.145 220.431 122.294C221.251 123.443 221.979 124.827 222.414 126.432C222.499 126.839 222.599 127.245 222.678 127.666C222.72 128.094 222.785 128.522 222.806 128.965C222.827 129.857 222.778 130.756 222.72 131.683C222.606 133.545 222.464 135.507 222.293 137.569C221.629 145.81 220.624 155.605 219.511 166.478C219.262 169.19 218.834 172.043 217.521 174.648C216.865 175.939 215.924 177.123 214.768 178.051C213.613 178.978 212.258 179.67 210.817 180.12C207.922 181.004 204.834 181.026 201.774 180.99C198.7 180.94 195.584 180.733 192.439 180.441C187.896 180.013 183.452 179.449 179.23 178.778L179.345 178.764C178.282 179.264 177.198 179.656 176.05 179.849C174.937 180.041 173.653 180.056 172.669 179.314L172.341 179.007C172.227 178.907 172.17 178.764 172.084 178.643C171.899 178.422 171.813 178.079 171.763 177.822C171.635 177.273 171.528 176.731 171.421 176.196C171.221 175.111 171.022 174.041 170.822 172.978C170.059 168.719 169.367 164.609 168.718 160.699L168.711 160.678V160.671C168.761 160.443 168.825 160.421 168.882 160.314C168.946 160.229 169.01 160.15 169.075 160.072C169.21 159.915 169.346 159.772 169.488 159.629C169.774 159.344 170.073 159.087 170.387 158.837C171.015 158.352 171.671 157.917 172.398 157.603C173.86 156.954 175.593 157.139 176.877 157.96C177.526 158.359 178.061 158.923 178.453 159.558L178.524 159.679L178.531 159.686C178.66 159.758 178.367 159.601 178.396 159.615H178.41H178.446H178.517L178.788 159.608L179.33 159.594C179.687 159.579 180.043 159.572 180.4 159.558C181.819 159.515 183.203 159.472 184.558 159.429C189.971 159.265 194.856 159.116 199.107 158.987L199 159.08C200.312 152.958 201.353 148.1 202.074 144.754C202.437 143.098 202.716 141.814 202.908 140.937C203.001 140.516 203.079 140.187 203.129 139.952C203.201 139.738 203.229 139.631 203.229 139.631Z" fill="#263238"/>
<path d="M210.511 117.364C210.554 117.414 209.776 118.149 208.728 119.505C208.214 120.189 207.622 121.024 207.045 122.002C206.474 122.979 205.904 124.092 205.397 125.291C204.392 127.709 203.85 130.028 203.572 131.726C203.293 133.424 203.229 134.487 203.158 134.487C203.129 134.487 203.129 134.216 203.144 133.738C203.144 133.253 203.208 132.554 203.308 131.69C203.515 129.971 204.028 127.609 205.048 125.155C205.561 123.935 206.146 122.808 206.745 121.83C207.351 120.853 207.972 120.025 208.514 119.348C209.077 118.684 209.562 118.177 209.919 117.849C210.283 117.514 210.489 117.35 210.511 117.364Z" fill="#263238"/>
<path d="M208.05 167.82C207.986 167.834 207.829 167.106 207.351 166.029C206.881 164.952 206.011 163.546 204.713 162.305C203.408 161.07 201.953 160.279 200.854 159.858C199.749 159.437 199.021 159.315 199.029 159.251C199.036 159.223 199.214 159.237 199.549 159.28C199.884 159.315 200.362 159.422 200.94 159.608C201.518 159.786 202.181 160.079 202.88 160.471C203.572 160.878 204.292 161.399 204.969 162.027C205.64 162.669 206.189 163.361 206.631 164.031C207.059 164.709 207.387 165.358 207.594 165.922C207.808 166.486 207.943 166.957 207.993 167.292C208.058 167.634 208.079 167.813 208.05 167.82Z" fill="#263238"/>
<path d="M179.444 178.029C179.387 178.008 179.673 177.009 179.908 175.347C180.158 173.684 180.336 171.365 180.279 168.804C180.243 167.52 180.136 166.307 179.993 165.208C179.822 164.117 179.637 163.132 179.387 162.333C178.924 160.721 178.375 159.829 178.439 159.793C178.46 159.779 178.603 160 178.845 160.407C178.981 160.606 179.095 160.87 179.23 161.184C179.38 161.491 179.516 161.848 179.644 162.255C179.929 163.061 180.143 164.052 180.336 165.158C180.5 166.271 180.621 167.498 180.657 168.797C180.714 171.387 180.493 173.727 180.179 175.396C180.029 176.231 179.858 176.895 179.722 177.351C179.558 177.794 179.466 178.036 179.444 178.029Z" fill="#263238"/>
<path d="M98.719 135.136C98.719 135.136 99.532 133.203 101.13 132.803C101.13 132.803 109.089 134.922 111.414 137.484C111.414 137.484 111.877 135.671 116.156 132.033C121.505 127.481 127.475 127.481 127.475 127.481L131.704 130.142L114.744 142.021L109.702 143.783L98.719 135.136Z" fill="#FAFAFA"/>
<path d="M98.7191 135.136C98.7262 135.136 98.7975 135.186 98.933 135.286C99.0828 135.4 99.2825 135.543 99.525 135.728C100.06 136.135 100.802 136.706 101.75 137.434C103.676 138.932 106.421 141.058 109.788 143.669L109.652 143.648C111.193 143.106 112.89 142.506 114.687 141.871L114.652 141.893C119.501 138.49 125.25 134.444 131.397 130.128L131.59 129.992L131.597 130.299C130.156 129.393 128.744 128.508 127.368 127.638L127.468 127.666C123.809 127.852 120.386 129.2 117.711 131.062C116.37 132.004 115.187 133.067 114.11 134.137C113.575 134.673 113.075 135.222 112.633 135.786C112.198 136.342 111.778 136.941 111.556 137.526L111.471 137.755L111.307 137.591C110.472 136.727 109.438 136.149 108.475 135.65C107.498 135.158 106.55 134.758 105.666 134.409C103.883 133.717 102.342 133.239 101.115 132.882H101.151C100.081 133.174 99.5179 133.938 99.1898 134.387C99.0258 134.623 98.9116 134.815 98.8403 134.944C98.7547 135.072 98.7262 135.136 98.7191 135.136C98.712 135.136 98.7333 135.058 98.7975 134.922C98.8617 134.787 98.9616 134.587 99.1185 134.337C99.4394 133.873 99.9814 133.067 101.108 132.732L101.123 132.725L101.144 132.732C102.385 133.06 103.932 133.524 105.737 134.195C106.635 134.53 107.598 134.922 108.59 135.415C109.574 135.914 110.622 136.478 111.521 137.391L111.271 137.455C111.528 136.749 111.942 136.185 112.391 135.593C112.847 135.015 113.347 134.459 113.881 133.909C114.958 132.825 116.149 131.747 117.512 130.777C120.243 128.872 123.681 127.488 127.468 127.295H127.518L127.567 127.324C128.944 128.187 130.363 129.079 131.797 129.985L132.032 130.135L131.804 130.299L131.611 130.435C125.449 134.737 119.694 138.761 114.83 142.157L114.809 142.171L114.787 142.178C112.983 142.799 111.285 143.391 109.738 143.926L109.666 143.955L109.609 143.905C106.257 141.229 103.519 139.046 101.6 137.512C100.68 136.77 99.9529 136.185 99.4394 135.764C99.2112 135.579 99.0258 135.422 98.8903 135.308C98.769 135.193 98.712 135.136 98.7191 135.136Z" fill="#263238"/>
<path d="M95.9233 134.808L96.4012 133.845L108.333 140.494C108.333 140.494 112.255 140.252 112.341 137.612C112.341 137.612 131.882 129.436 132.367 129.678C132.845 129.921 164.168 155.962 164.168 155.962L135.897 161.991L122.761 156.197L95.9233 134.808Z" fill="#1E7068"/>
<path d="M132.274 160.4C132.21 160.478 126.797 156.09 120.186 150.59C113.575 145.096 108.269 140.573 108.333 140.494C108.397 140.416 113.81 144.803 120.421 150.304C127.033 155.798 132.339 160.321 132.274 160.4Z" fill="#263238"/>
<path d="M139.877 161.006C139.813 161.085 133.651 155.941 126.12 149.52C118.581 143.098 112.533 137.826 112.598 137.747C112.662 137.669 118.824 142.813 126.362 149.234C133.886 155.662 139.941 160.928 139.877 161.006Z" fill="#263238"/>
<path d="M112.505 145.831C112.419 145.831 109.759 145.574 109.117 146.737C108.475 147.9 108.404 148.535 108.668 149.227C108.932 149.912 110.208 151.381 110.208 151.381L110.636 152.188C110.636 152.188 109.781 153.914 110.208 155.334C110.636 156.754 111.934 157.61 111.934 157.61C111.934 157.61 112.148 161.092 114.252 161.113C114.252 161.113 114.794 163.075 116.741 163.032C118.681 162.982 119.651 163.482 121.805 162.369C123.959 161.256 126.455 160.143 127.004 159.03C127.553 157.917 125.635 157.795 125.635 157.795C125.635 157.795 126.676 154.927 123.317 155.305C123.317 155.305 123.695 152.345 121.541 151.988C119.387 151.631 115.008 151.895 115.008 151.895L113.282 149.812C113.282 149.812 114.537 149.455 114.609 148.342C114.687 147.236 113.503 145.866 112.505 145.831Z" fill="#FFBF9D"/>
<path d="M156.444 157.139C156.23 157.211 153.642 158.359 151.916 158.145C150.19 157.931 136.81 150.59 134.87 150.012C132.931 149.434 129.621 150.012 131.996 152.53C134.371 155.049 141.703 159.151 141.853 159.365C141.995 159.579 142.288 160.757 142.288 160.757L134.806 157.924C134.806 157.924 129.343 155.192 128.48 156.847C127.617 158.502 128.915 159.437 130.278 159.872C131.647 160.307 133.152 160.764 133.152 160.764C133.152 160.764 134.735 163.689 136.318 164.838C137.902 165.986 145.09 170.595 146.317 171.095C147.537 171.601 162.285 172.75 162.571 172.536C162.856 172.322 162.571 161.527 162.571 161.527L157.393 156.847L156.444 157.139Z" fill="#FFBF9D"/>
</g>
<defs>
<clipPath id="clip0_215_9751">
<rect width="324" height="302" fill="white"/>
</clipPath>
</defs>
</svg>
